<svg preserveAspectRatio="none" 

 xmlns="http://www.w3.org/2000/svg" xmlns:xlink="http://www.w3.org/1999/xlink" width="22" height="22" viewBox="0 0 22 22">
    <defs>
        <path id="a" d="M0 0h22v22H0z"/>
    </defs>
    <g fill="none" fill-rule="evenodd">
        <mask id="b" fill="#fff">
            <use xlink:href="#a"/>
        </mask>
        <path fill="#84BD00" d="M22 11.067C22 4.955 17.075 0 11 0S0 4.955 0 11.067C0 16.59 4.023 21.169 9.281 22v-7.734H6.49v-3.2H9.28V8.629c0-2.773 1.642-4.305 4.155-4.305 1.203 0 2.463.216 2.463.216v2.723h-1.388c-1.366 0-1.792.853-1.792 1.729v2.076h3.05l-.487 3.2H12.72V22C17.977 21.169 22 16.59 22 11.067" mask="url(#b)"/>
    </g>
</svg>
