<svg preserveAspectRatio="none" 

 xmlns="http://www.w3.org/2000/svg" xmlns:xlink="http://www.w3.org/1999/xlink" width="24" height="17" viewBox="0 0 24 17">
    <defs>
        <path id="a" d="M0 0h23.991v16.767H0z"/>
    </defs>
    <g fill="none" fill-rule="evenodd">
        <mask id="b" fill="#fff">
            <use xlink:href="#a"/>
        </mask>
        <path fill="#84BD00" d="M9.604 11.985V4.793l6.264 3.6-6.264 3.592zM23.49 2.589A3.006 3.006 0 0 0 21.402.502C19.532 0 12.006 0 12.006 0S4.5-.01 2.61.5A3.006 3.006 0 0 0 .522 2.59 31.245 31.245 0 0 0 0 8.394c-.006 1.94.17 3.876.522 5.783a3.005 3.005 0 0 0 2.088 2.088c1.868.502 9.396.502 9.396.502s7.506 0 9.396-.502a3.005 3.005 0 0 0 2.088-2.088c.346-1.908.513-3.843.5-5.783a31.221 31.221 0 0 0-.5-5.805z" mask="url(#b)"/>
    </g>
</svg>
