<svg preserveAspectRatio="none" 

 xmlns="http://www.w3.org/2000/svg" xmlns:xlink="http://www.w3.org/1999/xlink" width="66" height="61" viewBox="0 0 66 61">
    <defs>
        <path id="a" d="M0 .738h65.914V61H.001z"/>
    </defs>
    <g fill="none" fill-rule="evenodd">
        <path fill="#C7C7C6" d="M33.42 20.487c.102.086.176.21.202.348.059.32.137.624.23.902.092.276.202.535.33.777a5.723 5.723 0 0 0 1.648 1.91 5.613 5.613 0 0 0 4.223 1.02 5.525 5.525 0 0 0 1.006-.253.586.586 0 0 1 .702.269.577.577 0 0 1 .078.296c0 .083-.017.17-.051.246a.608.608 0 0 1-.156.205 6.354 6.354 0 0 0-.67.656c-.195.216-.36.443-.502.673a5.395 5.395 0 0 0-.331.633c-.025.062-.052.12-.076.183a6.134 6.134 0 0 0-.193.537c-.012.047-.031.094-.043.14-.061.227-.11.452-.144.681-.007.054-.01.106-.017.163a5.938 5.938 0 0 0-.042.554v.205c0 .14.013.281.025.424.007.064.01.13.02.197.024.207.058.414.106.62.069.287.156.573.266.845a5.688 5.688 0 0 0 1.54 2.147c.063.054.107.12.139.187.012.023.017.047.024.07.015.049.027.1.032.155 0 .012.007.024.007.037 0 .022-.005.044-.007.069-.002.017-.005.037-.01.054a.501.501 0 0 1-.06.175.618.618 0 0 1-.13.158.598.598 0 0 1-.572.108 6.026 6.026 0 0 0-.89-.251 4.679 4.679 0 0 0-.826-.099 5.672 5.672 0 0 0-2.702.592 5.704 5.704 0 0 0-1.375.966 5.628 5.628 0 0 0-1.374 2.059c-.068.18-.132.357-.183.542a6.31 6.31 0 0 0-.102.436.594.594 0 0 1-.076.19.587.587 0 0 1-.504.289.588.588 0 0 1-.573-.481 5.986 5.986 0 0 0-.565-1.627 5.645 5.645 0 0 0-3.409-2.778c-.156-.05-.317-.084-.478-.119a5.654 5.654 0 0 0-2.994.217.619.619 0 0 1-.203.03.575.575 0 0 1-.562-.474l-.008-.051c-.002-.023-.01-.042-.01-.067 0-.012.01-.025.013-.04a.623.623 0 0 1 .031-.16c.01-.022.015-.042.027-.064a.623.623 0 0 1 .139-.192c.514-.439.89-.863 1.175-1.329.124-.202.231-.417.326-.629.027-.061.054-.12.078-.18.073-.177.136-.357.193-.54.014-.046.031-.09.043-.137.061-.222.11-.45.142-.678.01-.055.014-.111.02-.166a5.35 5.35 0 0 0 .038-.56c0-.068.005-.132.003-.199a5.955 5.955 0 0 0-.022-.419c-.008-.07-.008-.136-.017-.202a6.147 6.147 0 0 0-.11-.621v-.003a5.655 5.655 0 0 0-.27-.843 5.54 5.54 0 0 0-.636-1.161 5.96 5.96 0 0 0-.904-.991.56.56 0 0 1-.14-.19c-.01-.02-.014-.044-.021-.067a.479.479 0 0 1-.034-.155c-.003-.012-.008-.025-.008-.042s.005-.042.008-.064c.002-.02.002-.035.007-.052a.52.52 0 0 1 .066-.177.581.581 0 0 1 .7-.264c.464.163.896.269 1.305.315.141.018.275.028.41.033a5.635 5.635 0 0 0 2.193-.368 5.657 5.657 0 0 0 3.318-3.402c.1-.281.178-.572.234-.873a.589.589 0 0 1 .205-.345.58.58 0 0 1 .748 0m8.426-5.774a5.682 5.682 0 0 0-2.634-.658c-.185 0-.368.008-.553.02a5.748 5.748 0 0 0-2.164.663 5.605 5.605 0 0 0-1.345 1.01c-.26.265-.494.556-.702.864a5.75 5.75 0 0 0-.707 1.536c-.026.096-.04.197-.06.295l-.042.225a.58.58 0 0 1-.575.476.583.583 0 0 1-.572-.481 5.715 5.715 0 0 0-1.453-2.855 5.613 5.613 0 0 0-2.86-1.657 5.817 5.817 0 0 0-1.119-.148 5.624 5.624 0 0 0-1.7.21 5.644 5.644 0 0 0-1.96.991 5.85 5.85 0 0 0-1.435 1.654 5.849 5.849 0 0 0-.46 1.013 5.66 5.66 0 0 0-.305 1.7c-.008.14 0 .273.005.41.002.09.005.176.012.265.007.1.022.202.034.303.012.086.024.17.037.251.017.101.043.2.065.299.02.081.034.16.056.241.03.099.064.192.095.289.03.076.052.15.08.226.04.097.084.19.13.284.03.069.058.14.095.21.049.096.105.19.16.28.035.065.069.126.106.185.068.102.138.2.21.299.036.047.067.096.106.145.11.143.222.276.346.41l.01.007c.073.079.159.15.239.214l.085.072.086.071c.06.055.107.119.136.19.012.02.017.042.024.064a.71.71 0 0 1 .034.156c0 .014.01.027.01.039 0 .025-.007.047-.012.067-.002.02-.002.037-.005.056a.598.598 0 0 1-.195.335.616.616 0 0 1-.57.107 6.61 6.61 0 0 0-.475-.148 5.718 5.718 0 0 0-2.39-.087 5.787 5.787 0 0 0-2.944 1.484 5.79 5.79 0 0 0-.921 1.14c-.127.207-.234.419-.334.633-.025.062-.049.123-.076.182a6.084 6.084 0 0 0-.192.535c-.012.047-.03.094-.044.143a5.4 5.4 0 0 0-.141.678c-.008.055-.013.106-.02.16a6.06 6.06 0 0 0-.039.555c0 .074-.005.138-.002.205.002.143.012.283.026.422.005.066.008.135.018.2.024.206.058.408.107.616a5.756 5.756 0 0 0 1.265 2.48c.367.421.801.786 1.286 1.09a5.56 5.56 0 0 0 2.958.833c.207 0 .417-.01.627-.032a5.94 5.94 0 0 0 1.24-.284.588.588 0 0 1 .702.269.525.525 0 0 1 .058.177c.005.018.007.035.01.052.002.022.007.044.007.067 0 .012-.007.027-.01.042a.652.652 0 0 1-.029.152c-.01.025-.014.047-.027.07a.551.551 0 0 1-.139.187h-.002c-.21.18-.402.372-.582.58a5.672 5.672 0 0 0-1.33 2.854c-.008.064-.02.126-.028.187-.031.235-.05.471-.05.703l-.003.037c0 .214.017.426.039.636.007.064.02.128.031.192.022.15.047.299.083.449.017.069.034.14.054.214.039.146.083.289.136.43.022.064.042.128.069.19.08.201.17.401.272.596a5.6 5.6 0 0 0 1.026 1.376 5.713 5.713 0 0 0 3.426 1.61 5.6 5.6 0 0 0 3.266-.656 5.652 5.652 0 0 0 2.044-1.874c.307-.464.548-.981.712-1.531a3.43 3.43 0 0 0 .087-.394.647.647 0 0 1 .076-.198.678.678 0 0 1 .134-.175.562.562 0 0 1 .383-.167c.277 0 .533.145.587.424a5.61 5.61 0 0 0 2.078 3.434c.212.168.434.325.663.458a5.6 5.6 0 0 0 2.67.755 5.583 5.583 0 0 0 4.075-1.558c.414-.39.765-.838 1.04-1.324.186-.323.34-.663.454-1.016.178-.53.278-1.092.297-1.666v-.003l.003-.172c0-.913-.215-1.8-.62-2.596a5.206 5.206 0 0 0-.263-.469c-.192-.3-.411-.59-.657-.858-.04-.04-.08-.069-.122-.106-.04-.034-.08-.074-.12-.106l-.18-.153a.592.592 0 0 1-.122-.747.592.592 0 0 1 .702-.263 5.649 5.649 0 0 0 2.39.293 5.723 5.723 0 0 0 4.34-2.685v-.002a5.85 5.85 0 0 0 .595-1.344c.014-.05.031-.089.046-.138.061-.222.107-.451.141-.678.008-.054.013-.108.02-.165a5.35 5.35 0 0 0 .039-.557c0-.07.002-.136 0-.202 0-.14-.012-.281-.022-.422-.005-.069-.007-.136-.017-.2a5.767 5.767 0 0 0-.473-1.701 5.75 5.75 0 0 0-.901-1.402 5.995 5.995 0 0 0-.39-.4 5.572 5.572 0 0 0-.895-.685 5.525 5.525 0 0 0-2.955-.836 5.675 5.675 0 0 0-1.871.318.575.575 0 0 1-.695-.269.571.571 0 0 1-.066-.175c-.002-.02-.002-.037-.005-.056-.002-.02-.007-.04-.007-.065 0-.012.007-.027.007-.039a.508.508 0 0 1 .034-.158c.01-.02.015-.044.022-.064a.601.601 0 0 1 .144-.192c.102-.089.192-.192.287-.289.361-.355.67-.756.922-1.193a5.77 5.77 0 0 0 .54-1.223c.071-.239.117-.483.156-.727a5.765 5.765 0 0 0 .076-.863l.002-.061c0-.215-.014-.432-.039-.646-.004-.06-.017-.121-.026-.178a5.692 5.692 0 0 0-.086-.46c-.014-.072-.034-.144-.053-.218a5.82 5.82 0 0 0-.137-.429 5.36 5.36 0 0 0-.336-.779 5.945 5.945 0 0 0-.646-.961 5.775 5.775 0 0 0-1.723-1.395"/>
        <path fill="#221E1F" d="M32.537 42c-.116 0-.226.073-.312.188.086-.115.196-.188.312-.188.232 0 .44.163.484.483.124.929.376 1.77.754 2.517-.378-.746-.63-1.588-.754-2.517-.044-.32-.252-.483-.484-.483M38.957 48.218h.003c1.474.054 2.887-.456 4.04-1.44-1.153.984-2.566 1.494-4.04 1.44h-.003zM44.878 44.516a10.41 10.41 0 0 0 .244-2.029v-.003.003a10.41 10.41 0 0 1-.244 2.029M43.32 39.088a7.503 7.503 0 0 0-.542-1.044c-.03-.048-.064-.087-.098-.132.034.045.068.084.098.132.204.327.384.672.542 1.044M49 27.426a6.234 6.234 0 0 0-.932-.837c-.926-.675-1.987-1.02-3.068-1.014 1.081-.006 2.142.339 3.068 1.014.34.249.648.525.932.837M42.003 24.563a1.323 1.323 0 0 1 0-.126c0 .015-.006.033-.006.048 0 .024.004.051.006.078M32.793 40.674c.174 0 .326-.138.414-.348-.088.21-.24.348-.414.348M33.18 20.759a.832.832 0 0 1 0 0M41.92 36.703a.773.773 0 0 1 0 0M33.177 22.259a10.913 10.913 0 0 0 0 0M41.577 25.373a.34.34 0 0 1 0 0M32.927 40.881a.868.868 0 0 1 0 0M42.003 35.485c0-.018-.006-.033-.006-.051 0 .048.002.09 0 .132 0-.027.006-.054.006-.081"/>
        <path fill="#221E1F" d="M41.99 35.461c.008.024.014.054.02.078-.006-.024-.01-.054-.02-.078M42.009 24.461c-.008.027-.012.054-.018.078.006-.024.01-.051.018-.078M44.983 19.108"/>
        <path fill="#323E48" d="M38.848 27.262c-.05.071-.091.144-.136.217a6.975 6.975 0 0 0-.987 3.584c0 .526.059 1.062.178 1.588.178.779.485 1.517.91 2.177a3.989 3.989 0 0 0-.244-.013c-1.765-.053-3.444.61-4.728 1.858a6.726 6.726 0 0 0-1.37 1.914 3.43 3.43 0 0 0-.114-.229c-1.252-2.398-3.688-3.735-6.208-3.57.044-.068.094-.145.134-.216a7.029 7.029 0 0 0 .81-5.167 6.857 6.857 0 0 0-.916-2.186c.084.007.164.01.246.014 1.765.059 3.444-.604 4.729-1.855.57-.553 1.029-1.2 1.373-1.919.038.08.073.156.113.234 1.25 2.4 3.687 3.737 6.21 3.57m-6.864-5.788a6.559 6.559 0 0 1-.225.864 5.61 5.61 0 0 1-1.38 2.184 5.448 5.448 0 0 1-2.32 1.344 5.346 5.346 0 0 1-1.605.193 5.4 5.4 0 0 1-1.648-.343.546.546 0 0 0-.547.102.564.564 0 0 0-.19.333c-.004.02-.004.034-.007.051a.78.78 0 0 0 0 .105.484.484 0 0 0 .033.153l.02.069c.034.07.079.134.135.185.33.294.619.623.867.98a5.5 5.5 0 0 1 .875 1.978v.002c.047.205.08.41.105.614.007.068.007.134.014.2.012.138.024.275.026.414l-.002.197a7.125 7.125 0 0 1-.038.553c-.007.053-.011.112-.018.163a5.327 5.327 0 0 1-.141.672c-.01.044-.026.09-.04.134-.054.18-.117.36-.187.533-.024.058-.047.12-.073.178-.094.209-.195.42-.317.62-.274.463-.633.877-1.127 1.313a.677.677 0 0 0-.136.187c-.01.025-.017.047-.024.069a.611.611 0 0 0-.03.155.521.521 0 0 0-.002.105c.002.017.002.037.007.054a.566.566 0 0 0 .738.435 5.332 5.332 0 0 1 3.34-.097 5.441 5.441 0 0 1 2.729 1.887 5.645 5.645 0 0 1 1.093 2.464.568.568 0 0 0 .55.475.568.568 0 0 0 .486-.285.526.526 0 0 0 .073-.187c.025-.144.058-.288.098-.431a6.338 6.338 0 0 1 .476-1.205 5.6 5.6 0 0 1 1.022-1.362c.399-.39.846-.71 1.325-.957a5.318 5.318 0 0 1 2.597-.584c.258.01.518.041.795.097.272.056.558.14.856.249a.563.563 0 0 0 .675-.263.621.621 0 0 0 .06-.17c.005-.02.005-.04.008-.057a.657.657 0 0 0-.03-.258c-.01-.022-.015-.046-.024-.065a.595.595 0 0 0-.134-.188 6.31 6.31 0 0 1-.607-.63 5.686 5.686 0 0 1-1.235-2.935c-.008-.065-.01-.133-.017-.197a6.285 6.285 0 0 1-.023-.416l.002-.202a6.99 6.99 0 0 1 .035-.55c.007-.054.01-.108.019-.159.033-.226.077-.45.138-.674.012-.044.028-.093.042-.14.052-.18.115-.355.186-.527.02-.064.049-.122.075-.18.093-.212.197-.424.316-.626a4.63 4.63 0 0 1 .483-.668c.188-.219.4-.43.642-.642a.617.617 0 0 0 .15-.205.642.642 0 0 0 .052-.246c0-.05-.005-.1-.019-.148a.895.895 0 0 0-.054-.144.59.59 0 0 0-.293-.256.55.55 0 0 0-.384-.007c-.321.115-.643.2-.968.248a5.279 5.279 0 0 1-4.063-1.01 5.545 5.545 0 0 1-1.585-1.882 5.085 5.085 0 0 1-.319-.77 6.63 6.63 0 0 1-.22-.89.603.603 0 0 0-.195-.344.548.548 0 0 0-.72 0 .58.58 0 0 0-.196.34"/>
        <path fill="#C7C7C6" d="M36.723 13.033a6.166 6.166 0 0 0 2.183-3.293.618.618 0 0 1 .34-.405c.033-.015.063-.03.097-.042a.647.647 0 0 1 .175-.028.637.637 0 0 1 .526.286.58.58 0 0 1 .089.189 6.111 6.111 0 0 0 1.804 2.975 6.077 6.077 0 0 0 2.11 1.258 5.971 5.971 0 0 0 3.368.174.642.642 0 0 1 .696.308.645.645 0 0 1 .074.234c.003.03.01.054.01.082 0 .012-.007.022-.007.034 0 .048-.015.1-.03.145-.005.027-.008.05-.02.072a.508.508 0 0 1-.118.189c-.272.29-.511.601-.72.93a6.174 6.174 0 0 0-.721 1.58c-.107.375-.18.753-.215 1.146-.02.194-.03.388-.03.586 0 1.062.277 2.113.8 3.04a6.14 6.14 0 0 0 4.528 3.05c.338.045.679.065 1.022.052.172-.007.343-.02.515-.042.346-.04.689-.114 1.027-.219a.615.615 0 0 1 .6.132.632.632 0 0 1 .22.48.659.659 0 0 1-.213.482 5.962 5.962 0 0 0-.99 1.128 6.187 6.187 0 0 0-1.066 3.462c0 .418.045.833.129 1.24.168.814.496 1.59.97 2.27.232.343.503.661.807.952.059.057.1.127.135.197.008.024.013.047.022.072.018.05.025.104.03.156 0 .015.007.025.007.04 0 .025-.007.047-.01.075-.002.02-.002.037-.007.057a.691.691 0 0 1-.064.181l-.002.003a.636.636 0 0 1-.721.3 6.025 6.025 0 0 0-3.96.241 6.228 6.228 0 0 0-1.691 1.054 6.165 6.165 0 0 0-1.288 1.594c-.062.111-.114.23-.17.348a6.33 6.33 0 0 0-.63 2.689 6.15 6.15 0 0 0 1.002 3.375c.217.333.467.647.748.937a.642.642 0 0 1 .126.192c.01.022.012.05.02.07.014.049.027.099.03.15 0 .016.006.023.006.036 0 .027-.007.054-.012.077-.002.022-.002.042-.005.06a.887.887 0 0 1-.064.18.826.826 0 0 1-.133.16.628.628 0 0 1-.57.144 6.071 6.071 0 0 0-4.765.813 6.166 6.166 0 0 0-1.752 1.73 6.182 6.182 0 0 0-.832 1.85.634.634 0 0 1-.615.476.629.629 0 0 1-.567-.373c-.015-.032-.035-.064-.045-.104a6.596 6.596 0 0 0-.345-.967 5.72 5.72 0 0 0-.392-.716 6.25 6.25 0 0 0-1.066-1.292 6.401 6.401 0 0 0-1.21-.855 6.041 6.041 0 0 0-2.89-.738c-1.213 0-2.356.36-3.32.989a6.126 6.126 0 0 0-2.012 2.162c-.25.44-.44.915-.575 1.417a.634.634 0 0 1-.612.477.657.657 0 0 1-.459-.211.576.576 0 0 1-.153-.266 6.152 6.152 0 0 0-4.397-4.377 6.194 6.194 0 0 0-1.51-.191c-.474 0-.953.06-1.425.171a.62.62 0 0 1-.567-.147.584.584 0 0 1-.195-.338c-.005-.02-.007-.04-.01-.054-.002-.03-.01-.057-.01-.082 0-.013.008-.023.008-.035a.634.634 0 0 1 .03-.152c.004-.022.01-.044.016-.07a.659.659 0 0 1 .126-.19 5.824 5.824 0 0 0 .748-.937 6.134 6.134 0 0 0 1.002-3.371 6.185 6.185 0 0 0-1.128-3.554 6.052 6.052 0 0 0-2.24-1.94 5.993 5.993 0 0 0-1.128-.434 5.883 5.883 0 0 0-1.631-.224c-.546 0-1.096.075-1.622.224a.632.632 0 0 1-.723-.298.564.564 0 0 1-.064-.184c-.005-.02-.005-.038-.007-.057-.005-.028-.01-.05-.01-.075 0-.015.005-.027.007-.04a.567.567 0 0 1 .03-.156c.007-.023.012-.048.022-.072a.651.651 0 0 1 .136-.197c.212-.209.414-.43.597-.663a6.323 6.323 0 0 0 .841-1.464c.2-.49.334-1.005.403-1.529.034-.264.054-.527.054-.793a6.368 6.368 0 0 0-.306-1.921 6.115 6.115 0 0 0-.528-1.176 6.163 6.163 0 0 0-1.222-1.506.708.708 0 0 1-.145-.201c-.01-.025-.015-.048-.025-.073a.623.623 0 0 1-.032-.164c-.002-.015-.007-.027-.007-.042 0-.022.005-.045.007-.072 0-.017 0-.035.005-.052a.631.631 0 0 1 .804-.487c.55.171 1.123.26 1.693.268.57.01 1.148-.067 1.708-.219.195-.06.387-.119.575-.193a6.083 6.083 0 0 0 3.114-2.7 6.2 6.2 0 0 0 .691-4.208 6.16 6.16 0 0 0-1.577-3.074.566.566 0 0 1-.118-.192c-.01-.02-.012-.042-.02-.07a.576.576 0 0 1-.03-.144c0-.012-.004-.022-.004-.034a3.04 3.04 0 0 1 .017-.137.65.65 0 0 1 .066-.179.641.641 0 0 1 .694-.308c.454.107.92.164 1.38.164 1.211 0 2.354-.36 3.318-.992a5.77 5.77 0 0 0 .783-.604c.241-.221.469-.462.676-.723a6.233 6.233 0 0 0 1.13-2.252.643.643 0 0 1 .612-.475c.07 0 .14.013.207.035a.648.648 0 0 1 .405.44 6.193 6.193 0 0 0 1.128 2.252 6.11 6.11 0 0 0 4.78 2.319c1.38 0 2.677-.472 3.719-1.278m-.83-10.297A6.039 6.039 0 0 0 33.003 2a6.106 6.106 0 0 0-5.332 3.15 5.915 5.915 0 0 0-.575 1.416.638.638 0 0 1-.612.48.578.578 0 0 1-.207-.038.62.62 0 0 1-.405-.442 12.525 12.525 0 0 0-.153-.492 6.151 6.151 0 0 0-.422-.925 6.094 6.094 0 0 0-1.231-1.556 6.098 6.098 0 0 0-2.591-1.4A5.963 5.963 0 0 0 19.965 2c-3.37 0-6.11 2.761-6.11 6.154a6.164 6.164 0 0 0 1.685 4.235c.054.06.091.125.12.192.01.022.013.047.02.07a.591.591 0 0 1 .028.146c0 .013.004.023.004.032a.392.392 0 0 1-.01.083c-.002.02-.002.042-.007.062a.59.59 0 0 1-.064.176.635.635 0 0 1-.696.303c-2.613-.609-5.362.604-6.69 2.953a6.187 6.187 0 0 0-.75 2.245A6.514 6.514 0 0 0 7.48 20.1a6.212 6.212 0 0 0 1.148 2.985c.256.348.548.668.873.964a.593.593 0 0 1 .146.204c.012.02.017.042.025.07.017.052.03.106.034.164 0 .015.007.027.007.04 0 .024-.004.05-.007.072a.462.462 0 0 1-.01.057.54.54 0 0 1-.064.186.634.634 0 0 1-.738.296 6.094 6.094 0 0 0-4.5.388 6.091 6.091 0 0 0-2.592 2.455 6.18 6.18 0 0 0 2.288 8.396 6.116 6.116 0 0 0 3.437.79c.25-.019.494-.054.743-.104.155-.032.308-.06.461-.104 0 0 .015-.007.035-.012a.603.603 0 0 1 .21-.02c.21.01.407.129.513.32a.91.91 0 0 1 .069.182c.002.022.002.04.005.06.005.024.012.047.012.074 0 .012-.007.025-.01.04a.57.57 0 0 1-.032.156c-.007.025-.012.05-.022.072a.592.592 0 0 1-.138.197c-.15.144-.294.298-.43.455a8.01 8.01 0 0 0-.382.494 6.234 6.234 0 0 0-1.098 3.52 6.078 6.078 0 0 0 .457 2.321c.096.246.214.483.345.716.25.445.548.848.888 1.206a6.21 6.21 0 0 0 1.557 1.18c.284.154.583.284.889.386a6.101 6.101 0 0 0 1.917.338c.494.002.992-.048 1.486-.17a.633.633 0 0 1 .205-.012.637.637 0 0 1 .56.5l.007.057c.003.025.01.052.01.08 0 .012-.005.022-.005.034a.645.645 0 0 1-.032.15.57.57 0 0 1-.146.261 6.247 6.247 0 0 0-1.046 1.446 6.116 6.116 0 0 0-.7 2.858c0 3.39 2.74 6.152 6.11 6.152a6.078 6.078 0 0 0 4.777-2.317c.207-.26.392-.536.555-.83.165-.293.304-.604.422-.924.054-.164.106-.33.153-.497a.639.639 0 0 1 .612-.475.643.643 0 0 1 .612.475c.089.338.207.66.345.966A6.088 6.088 0 0 0 28.9 58.41a6.076 6.076 0 0 0 8.876-.726c.208-.26.39-.536.558-.83.244-.442.437-.917.572-1.421a.603.603 0 0 1 .084-.192.631.631 0 0 1 .257-.214c.032-.014.062-.03.096-.04a.646.646 0 0 1 .175-.03.633.633 0 0 1 .526.283c.04.06.07.123.089.193.086.338.205.66.343.966a6.088 6.088 0 0 0 1.46 2.011 6.093 6.093 0 0 0 4.1 1.591c2.053 0 3.867-1.029 4.977-2.595.074-.102.14-.211.207-.316a6.45 6.45 0 0 0 .521-1.056c.096-.26.178-.522.242-.795a6.136 6.136 0 0 0-1.587-5.697.642.642 0 0 1-.128-.196c-.01-.018-.013-.045-.02-.068a.61.61 0 0 1-.027-.151c0-.01-.008-.023-.008-.035 0-.025.008-.055.013-.08 0-.017 0-.037.002-.057a.682.682 0 0 1 .067-.179.632.632 0 0 1 .703-.306 6.013 6.013 0 0 0 3.41-.158 6.059 6.059 0 0 0 1.718-.913 6.102 6.102 0 0 0 1.629-1.864 6.183 6.183 0 0 0 .802-3.037 6.215 6.215 0 0 0-1.898-4.454.648.648 0 0 1-.113-.783.56.56 0 0 1 .133-.162.641.641 0 0 1 .375-.161.614.614 0 0 1 .212.025c.264.072.53.129.802.164.54.074 1.088.074 1.631 0 .274-.035.543-.095.81-.167a6.034 6.034 0 0 0 1.648-.728 6.137 6.137 0 0 0 2.043-2.163 6.17 6.17 0 0 0 .8-3.037 6.205 6.205 0 0 0-1.801-4.372 6.273 6.273 0 0 0-1.286-.984 6.08 6.08 0 0 0-2.347-.77 6.124 6.124 0 0 0-2.463.238.61.61 0 0 1-.22.03.66.66 0 0 1-.384-.157.6.6 0 0 1-.2-.355c-.005-.02-.008-.04-.01-.058-.002-.022-.007-.047-.007-.07 0-.012.007-.029.007-.044a.725.725 0 0 1 .035-.161c.01-.025.017-.053.024-.07a.593.593 0 0 1 .146-.201c.165-.15.32-.304.464-.465.027-.03.052-.06.076-.092.26-.298.494-.614.691-.955.106-.186.203-.377.291-.576a6.196 6.196 0 0 0 .54-2.526 6.159 6.159 0 0 0-.801-3.037c-1.323-2.349-4.074-3.562-6.69-2.953a.632.632 0 0 1-.694-.303.566.566 0 0 1-.064-.176c-.005-.02-.007-.043-.01-.062-.002-.025-.01-.053-.01-.083 0-.01.008-.02.008-.032 0-.05.012-.1.027-.149.005-.02.01-.045.02-.067a.63.63 0 0 1 .118-.191A6.028 6.028 0 0 0 51.9 9.887a6.117 6.117 0 0 0 .25-1.733 6.217 6.217 0 0 0-.482-2.39 6.133 6.133 0 0 0-1.747-2.356 6.197 6.197 0 0 0-2.068-1.132 6.105 6.105 0 0 0-7.149 2.873c-.163.291-.301.602-.42.925a6.238 6.238 0 0 0-.15.492.638.638 0 0 1-.614.48.632.632 0 0 1-.529-.284.562.562 0 0 1-.084-.196 6.432 6.432 0 0 0-.573-1.417 6.601 6.601 0 0 0-.557-.832 6.077 6.077 0 0 0-1.883-1.581"/>
        <path fill="#221E1F" d="M47.992 47.458c.008.03.01.057.016.084-.006-.027-.008-.054-.016-.084M48.004 14.53c0-.039-.004-.066-.008-.099.004.042.006.09.004.138 0-.015.004-.027.004-.039"/>
        <path fill="#221E1F" d="M48.008 14.458c-.004.03-.006.06-.016.084.01-.024.012-.051.016-.084M54.991 35.458c.008.03.012.057.018.084-.006-.027-.01-.054-.018-.084"/>
        <path fill="#221E1F" d="M55.004 35.48c0-.017-.006-.032-.006-.05a1.08 1.08 0 0 1-.002.14.684.684 0 0 0 .008-.09M48.004 47.476c0-.018-.006-.03-.006-.045.002.045 0 .096-.002.138.002-.03.008-.06.008-.093M37.841 50.85c.114.375.208.765.28 1.17.008.048.026.084.038.13-.012-.045-.03-.081-.038-.13a10.094 10.094 0 0 0-.28-1.17M55.088 25.791a1.073 1.073 0 0 1 0 0M53.503 25.352a.408.408 0 0 1 0 0M56.003 24.569c-.004-.048-.002-.087 0-.138 0 .018-.006.036-.006.054 0 .027.004.054.006.084M49.991 48.46c.006.03.008.056.018.08-.01-.023-.012-.05-.018-.08M56.59 37.388a.35.35 0 0 0 0 0M60.005 37.04a3.804 3.804 0 0 1 0 0M37.733 56.474a9.95 9.95 0 0 1 0 0M38.845 54.514a.34.34 0 0 0 0 0"/>
        <path fill="#221E1F" d="M50 48.57c0-.05 0-.09.004-.14a.885.885 0 0 0-.008.096c0 .014.004.03.004.044M56.199 48c.528-.572.98-1.303 1.322-2.168-.342.865-.794 1.596-1.322 2.168M62 36c.59-.514 1.082-1.221 1.438-2.077-.356.856-.848 1.563-1.438 2.077M56.92 37.692a1.187 1.187 0 0 0 0 0M46.066 60c-1.542 0-2.98-.689-4.066-1.846C43.087 59.311 44.524 60 46.066 60c2.036 0 3.835-1.189 4.934-3-1.099 1.811-2.898 3-4.934 3M49.92 48.707a1.261 1.261 0 0 0 0 0"/>
        <g>
            <mask id="b" fill="#fff">
                <use xlink:href="#a"/>
            </mask>
            <path fill="#323E48" d="M37.69 4.315a6.141 6.141 0 0 1 .774 1.278c.14.31.254.629.345.96a.574.574 0 0 0 .083.193c.039.062.085.109.14.15a.619.619 0 0 0 .904-.15.634.634 0 0 0 .088-.193 5.9 5.9 0 0 1 .567-1.41 6.04 6.04 0 0 1 5.282-3.136c.624 0 1.227.096 1.797.277a6.11 6.11 0 0 1 3.777 3.47c.151.364.273.75.354 1.145a6.214 6.214 0 0 1 .095 1.82 6.204 6.204 0 0 1-.924 2.708 5.995 5.995 0 0 1-.718.921.655.655 0 0 0-.12.19c-.01.023-.012.048-.02.067-.012.05-.024.1-.027.149-.002.04 0 .077.005.114l.008.059a.626.626 0 0 0 .753.48c2.588-.606 5.316.6 6.626 2.938.521.92.792 1.967.792 3.023 0 .22-.01.438-.031.655-.071.64-.24 1.27-.504 1.858a5.975 5.975 0 0 1-.288.574 6.159 6.159 0 0 1-.682.95c-.027.03-.05.061-.074.091-.146.16-.3.314-.462.46a.642.642 0 0 0-.144.2c-.01.02-.015.047-.024.072a.525.525 0 0 0-.035.16c-.002.04-.004.078 0 .115a.696.696 0 0 0 .07.242.646.646 0 0 0 .518.324.594.594 0 0 0 .22-.03 6.04 6.04 0 0 1 2.439-.237 6.031 6.031 0 0 1 3.598 1.746 6.202 6.202 0 0 1 1.787 4.35 6.164 6.164 0 0 1-2.821 5.175 6.024 6.024 0 0 1-2.432.89 6.093 6.093 0 0 1-2.41-.162.606.606 0 0 0-.582.133.663.663 0 0 0-.135.163.691.691 0 0 0-.083.314c0 .171.069.34.196.463a6.193 6.193 0 0 1 1.88 4.432 6.133 6.133 0 0 1-.793 3.025 6.064 6.064 0 0 1-1.613 1.855c-.127.1-.264.188-.398.277a6.1 6.1 0 0 1-2.721.938 5.925 5.925 0 0 1-1.96-.149.626.626 0 0 0-.697.305.597.597 0 0 0-.064.178c-.005.02-.005.04-.007.054-.005.042-.005.077-.005.116a.634.634 0 0 0 .03.151c.007.023.01.047.019.067a.593.593 0 0 0 .125.193 6.129 6.129 0 0 1 1.738 4.289c0 .475-.064.94-.167 1.383a6.27 6.27 0 0 1-.237.791 6.31 6.31 0 0 1-.515 1.049c-.066.104-.132.213-.206.314-1.1 1.56-2.896 2.585-4.928 2.585a6.017 6.017 0 0 1-4.062-1.583 6.127 6.127 0 0 1-1.787-2.966.774.774 0 0 0-.088-.188.624.624 0 0 0-.521-.282.673.673 0 0 0-.176.03c-.032.01-.064.025-.093.037-.1.05-.19.121-.254.215a.678.678 0 0 0-.083.188 6.193 6.193 0 0 1-1.12 2.243 6.016 6.016 0 0 1-4.73 2.305 6.026 6.026 0 0 1-4.732-2.305 6.127 6.127 0 0 1-.775-1.278 6.324 6.324 0 0 1-.345-.965.62.62 0 0 0-.81-.435.62.62 0 0 0-.317.247.766.766 0 0 0-.085.188 6.859 6.859 0 0 1-.152.497c-.117.32-.254.628-.415.92a6.274 6.274 0 0 1-.55.826c-.105.127-.21.255-.323.376a6.026 6.026 0 0 1-4.41 1.93c-3.336 0-6.052-2.748-6.052-6.122a6.183 6.183 0 0 1 .694-2.844 6.163 6.163 0 0 1 1.036-1.44.55.55 0 0 0 .123-.193c.01-.022.014-.042.022-.067a.533.533 0 0 0 .029-.148c.002-.04 0-.077-.002-.116l-.008-.055a.773.773 0 0 0-.063-.178.71.71 0 0 0-.132-.16.597.597 0 0 0-.36-.159.62.62 0 0 0-.203.012c-.49.12-.982.171-1.471.169a6.007 6.007 0 0 1-1.9-.337 6.063 6.063 0 0 1-3.647-3.47c-.198-.487-.332-1-.4-1.521a6.21 6.21 0 0 1 1.039-4.291c.12-.169.244-.332.378-.493.135-.156.277-.309.426-.452a.536.536 0 0 0 .134-.198c.012-.02.015-.047.025-.07a.488.488 0 0 0 .029-.155.883.883 0 0 0 0-.114c-.003-.02-.003-.037-.007-.06a.617.617 0 0 0-.572-.5.603.603 0 0 0-.21.02c-.023.006-.037.013-.037.013-.152.042-.303.072-.455.104a6.924 6.924 0 0 1-.736.104 5.99 5.99 0 0 1-3.405-.79 6.105 6.105 0 0 1-2.591-2.962 6.313 6.313 0 0 1-.416-1.551 6.188 6.188 0 0 1 .738-3.839 6.073 6.073 0 0 1 2.567-2.444 6 6 0 0 1 4.459-.386.636.636 0 0 0 .601-.126.726.726 0 0 0 .132-.168.696.696 0 0 0 .074-.242c.002-.037 0-.077 0-.112a.717.717 0 0 0-.035-.163c-.01-.027-.014-.05-.024-.07a.706.706 0 0 0-.144-.204 6.657 6.657 0 0 1-.868-.958 6.22 6.22 0 0 1-1.12-4.412c.1-.782.352-1.541.744-2.234 1.312-2.337 4.038-3.544 6.626-2.938a.626.626 0 0 0 .753-.48c.005-.017.008-.04.01-.06.003-.036.005-.074.003-.113a.5.5 0 0 0-.03-.146c-.005-.022-.007-.047-.017-.07a.655.655 0 0 0-.12-.19 6.147 6.147 0 0 1-1.67-4.214c0-3.377 2.717-6.127 6.053-6.127.514 0 1.017.07 1.496.195.96.245 1.84.73 2.564 1.393.242.222.467.462.673.72a6.141 6.141 0 0 1 1.117 2.238.63.63 0 0 0 .606.477.625.625 0 0 0 .606-.477 8.7 8.7 0 0 1 .152-.49 6.39 6.39 0 0 1 .968-1.748 6.036 6.036 0 0 1 4.732-2.308c1.024 0 2.005.264 2.865.734a6.086 6.086 0 0 1 1.865 1.574M32.96.738c-2.745 0-5.209 1.55-6.458 3.928C25.254 2.289 22.788.738 20.045.738c-4.03 0-7.309 3.317-7.309 7.396 0 1.372.372 2.698 1.069 3.848a7.344 7.344 0 0 0-6.461 3.733 7.454 7.454 0 0 0 .296 7.793 7.35 7.35 0 0 0-6.681 3.725 7.461 7.461 0 0 0-.958 3.654c0 2.654 1.418 5.122 3.698 6.435 1.2.69 2.538 1.02 3.884.965a7.508 7.508 0 0 0-1.18 4.02c0 1.278.332 2.542.958 3.655a7.331 7.331 0 0 0 6.478 3.735 7.404 7.404 0 0 0-1.103 3.908c0 4.076 3.278 7.395 7.31 7.395 2.742 0 5.208-1.553 6.455-3.927C27.751 59.447 30.214 61 32.959 61c2.743 0 5.207-1.553 6.456-3.927C40.662 59.447 43.128 61 45.873 61c4.029 0 7.307-3.319 7.307-7.395a7.382 7.382 0 0 0-1.103-3.908 7.342 7.342 0 0 0 6.498-3.735 7.456 7.456 0 0 0 .958-3.656c0-1.427-.42-2.824-1.18-4.019a7.142 7.142 0 0 0 2.187-.262 7.266 7.266 0 0 0 4.417-3.475 7.438 7.438 0 0 0 .958-3.651c0-2.657-1.418-5.123-3.696-6.436a7.224 7.224 0 0 0-3.943-.952 7.454 7.454 0 0 0 .298-7.796 7.354 7.354 0 0 0-6.463-3.733 7.413 7.413 0 0 0 1.069-3.848c0-4.08-3.278-7.396-7.307-7.396-2.745 0-5.211 1.55-6.458 3.928-1.25-2.377-3.713-3.928-6.456-3.928" mask="url(#b)"/>
        </g>
        <path fill="#323E48" d="M25.25 13.04a7.338 7.338 0 0 0 1.24-1.687c.301.57.68 1.091 1.114 1.553a6.938 6.938 0 0 0-2.355.133zm-4.274 24.283c-.293.428-.537.89-.724 1.375a7.528 7.528 0 0 0-.241-.465 7.602 7.602 0 0 0-.68-.993c.54.09 1.091.123 1.645.083zm-5.933-2.667a7.477 7.477 0 0 0-1.7-.14c.074-.116.148-.234.215-.357.216-.376.394-.77.537-1.175.236.603.556 1.168.948 1.672zm19.083-19.49a6.982 6.982 0 0 0-1.074 1.546 6.876 6.876 0 0 0-1.037-1.522 6.893 6.893 0 0 0 2.11-.025h.001zM14.646 26.82a6.903 6.903 0 0 0-.58 1.17 7.305 7.305 0 0 0-.801-1.568 7.271 7.271 0 0 0 1.756-.135c-.13.17-.259.346-.375.533zm17.222 19.013c.423-.462.785-.98 1.073-1.548a6.536 6.536 0 0 0 1.032 1.526 7.143 7.143 0 0 0-2.105.022zm19.477-11.65c.229-.371.416-.76.571-1.158.192.521.439 1.025.742 1.49a7.32 7.32 0 0 0-1.628.13c.108-.147.214-.302.315-.462zm-7.017-17.076a5.31 5.31 0 0 1 .34.777c.054.142.098.285.138.43a5.761 5.761 0 0 1 .143.671c.007.06.02.12.024.182.027.211.04.428.04.642 0 .02-.003.041-.003.064 0 .223-.017.447-.05.673a1.708 1.708 0 0 1-.026.187 5.258 5.258 0 0 1-.158.723c-.128.43-.32.836-.547 1.22a5.565 5.565 0 0 1-.93 1.191c-.097.096-.188.197-.294.286a.642.642 0 0 0-.14.189c-.012.022-.015.047-.025.066a.577.577 0 0 0-.032.158.482.482 0 0 0 0 .103c0 .02 0 .037.005.056a.586.586 0 0 0 .768.443c.205-.069.414-.13.626-.177a6.122 6.122 0 0 1 1.264-.14 5.661 5.661 0 0 1 3.894 1.517 5.64 5.64 0 0 1 1.67 2.871c.051.209.083.413.113.62.007.066.01.132.015.204a4.7 4.7 0 0 1 .024.418c.003.066 0 .132 0 .201a6.017 6.017 0 0 1-.04.556c-.009.056-.014.11-.021.164a5.323 5.323 0 0 1-.143.677c-.015.049-.03.088-.044.137a6.111 6.111 0 0 1-.271.718 5.59 5.59 0 0 1-.333.622v.002a5.88 5.88 0 0 1-.933 1.136 5.718 5.718 0 0 1-1.6 1.057c-.292.133-.597.239-.905.318a5.698 5.698 0 0 1-3.365-.126.598.598 0 0 0-.788.563c0 .165.07.33.202.445l.185.153c.04.031.079.07.12.105.04.037.084.07.119.106.251.268.475.556.67.855a5.677 5.677 0 0 1 .89 3.056l-.004.172v.003a5.761 5.761 0 0 1-.298 1.662 5.67 5.67 0 0 1-1.512 2.333 5.544 5.544 0 0 1-.431.37A5.734 5.734 0 0 1 39 46.954h-.002a5.73 5.73 0 0 1-2.697-.755 5.284 5.284 0 0 1-.67-.457 5.567 5.567 0 0 1-1.175-1.217 5.589 5.589 0 0 1-.928-2.208c-.052-.277-.31-.423-.594-.423a.577.577 0 0 0-.387.168.71.71 0 0 0-.211.37c-.025.136-.05.266-.087.394a5.649 5.649 0 0 1-.721 1.527 5.412 5.412 0 0 1-.33.45 5.7 5.7 0 0 1-1.737 1.418 5.714 5.714 0 0 1-3.298.654A5.795 5.795 0 0 1 22.7 45.27a5.383 5.383 0 0 1-.734-.875 5.382 5.382 0 0 1-.581-1.092c-.025-.061-.044-.125-.066-.187a3.966 3.966 0 0 1-.138-.43c-.023-.074-.04-.145-.057-.214a5.708 5.708 0 0 1-.084-.447c-.01-.064-.022-.126-.03-.192a5.439 5.439 0 0 1-.039-.632c0-.015.003-.027.003-.04 0-.23.02-.466.049-.7.007-.061.02-.123.03-.187.039-.243.09-.486.162-.727a5.631 5.631 0 0 1 1.771-2.695.551.551 0 0 0 .14-.189c.013-.022.018-.044.025-.069.02-.049.032-.1.035-.152a.4.4 0 0 0 .002-.108.672.672 0 0 0-.071-.229.594.594 0 0 0-.705-.268c-.416.14-.837.234-1.26.283a6.02 6.02 0 0 1-1.878-.096 5.387 5.387 0 0 1-.603-.17 5.343 5.343 0 0 1-1.14-.533c-.49-.3-.93-.669-1.301-1.087a5.637 5.637 0 0 1-1.387-3.088c-.01-.064-.012-.13-.017-.199-.01-.137-.022-.278-.025-.42-.002-.067.003-.133.003-.202.005-.187.017-.369.037-.555.007-.054.012-.106.02-.16.034-.229.08-.453.142-.676.015-.05.032-.094.045-.143.059-.18.123-.356.197-.533l.076-.182c.101-.214.207-.426.335-.63a5.65 5.65 0 0 1 .931-1.135 5.844 5.844 0 0 1 2.975-1.48 5.772 5.772 0 0 1 2.897.23.646.646 0 0 0 .204.033.618.618 0 0 0 .372-.138.606.606 0 0 0 .133-.16.552.552 0 0 0 .064-.174c.003-.02.003-.037.005-.054a.506.506 0 0 0-.034-.261.15.15 0 0 0-.02-.066.551.551 0 0 0-.14-.19l-.087-.07-.083-.072a2.004 2.004 0 0 1-.244-.212l-.008-.01a5.423 5.423 0 0 1-.352-.408c-.037-.046-.069-.098-.108-.147a6.357 6.357 0 0 1-.21-.295c-.039-.06-.07-.12-.108-.182-.054-.093-.113-.187-.162-.283-.037-.066-.064-.142-.096-.209-.045-.093-.092-.187-.129-.282-.03-.077-.054-.15-.08-.227-.033-.095-.07-.189-.097-.287-.022-.081-.04-.16-.059-.241a6.345 6.345 0 0 1-.066-.295l-.037-.253c-.01-.099-.025-.202-.032-.303a4.705 4.705 0 0 1-.015-.263c-.005-.137-.013-.27-.005-.41a5.73 5.73 0 0 1 .308-1.694c.123-.354.28-.693.465-1.01a5.822 5.822 0 0 1 1.904-1.962 5.765 5.765 0 0 1 4.377-.738 5.69 5.69 0 0 1 2.891 1.652 5.682 5.682 0 0 1 1.468 2.847.593.593 0 0 0 1.163.005l.04-.221c.019-.101.034-.202.063-.3a5.567 5.567 0 0 1 .715-1.527 5.722 5.722 0 0 1 2.069-1.87c.35-.188.709-.335 1.076-.443a5.412 5.412 0 0 1 1.11-.217 5.894 5.894 0 0 1 3.222.634 5.82 5.82 0 0 1 1.74 1.392c.245.293.462.612.652.959zm-22.561-2.073a6.888 6.888 0 0 0-1.192 1.716 7.357 7.357 0 0 0-.695-1.494l.104.002c.613 0 1.211-.081 1.783-.224zm-2.426 8.637c.236-.3.458-.62.65-.959.113-.2.214-.403.308-.607.18.514.419 1.008.72 1.463a7.073 7.073 0 0 0-1.678.103zm.522 22.074c.28-.448.51-.922.685-1.416.022.042.044.088.066.128.303.56.673 1.06 1.096 1.497a7.312 7.312 0 0 0-1.726-.21h-.121zm7.8 2.279a7.367 7.367 0 0 0-1.172 1.627 7.348 7.348 0 0 0-1.288-1.735c.8.179 1.638.218 2.46.108zm13.076-.062a7.261 7.261 0 0 0-1.236 1.69 7.283 7.283 0 0 0-1.116-1.557c.192.022.382.037.574.04.606.02 1.204-.04 1.778-.173zm3.488-1.993a6.958 6.958 0 0 0 1.204-1.739 7.48 7.48 0 0 0 .715 1.517c-.045-.002-.092-.002-.138-.002-.614 0-1.207.078-1.781.224zm2.37-8.627a7.01 7.01 0 0 0-.907 1.505 6.676 6.676 0 0 0-.717-1.412 7.153 7.153 0 0 0 1.623-.093zm6.13-10.93a7.334 7.334 0 0 0-.293.48c-.212.368-.39.756-.535 1.16a6.835 6.835 0 0 0-1.04-1.807 7.2 7.2 0 0 0 1.868.167zm-7.714-2.731c.307-.448.554-.93.746-1.436.076.16.155.315.241.467.22.384.476.74.754 1.072a6.976 6.976 0 0 0-1.741-.103zm1.1-8.425a7.27 7.27 0 0 0-.67 1.42c-.027-.044-.046-.09-.07-.132a6.933 6.933 0 0 0-1.094-1.497 7.448 7.448 0 0 0 1.729.211l.106-.002zm-7.787-2.28a7.512 7.512 0 0 0 1.177-1.624c.342.646.78 1.226 1.29 1.738a6.99 6.99 0 0 0-2.467-.113zm-7.316.684a6.14 6.14 0 0 1-2.108-1.246 5.998 5.998 0 0 1-.672-.718 6.004 6.004 0 0 1-1.128-2.225.62.62 0 0 0-.406-.435A.627.627 0 0 0 26.49 9a.642.642 0 0 0-.611.472 6.069 6.069 0 0 1-1.805 2.943 6.09 6.09 0 0 1-4.091 1.578 6.08 6.08 0 0 1-1.375-.16.64.64 0 0 0-.694.3.613.613 0 0 0-.064.177c-.005.017-.005.037-.008.06-.005.036-.007.073-.005.112.003.05.015.099.03.145.005.022.01.047.017.07a.65.65 0 0 0 .12.188 6.642 6.642 0 0 1 .723.917 6.032 6.032 0 0 1 .96 3.28c0 .524-.069 1.047-.202 1.551a6.05 6.05 0 0 1-.598 1.45c-.099.178-.207.35-.323.514a6.53 6.53 0 0 1-.778.903 6.24 6.24 0 0 1-.939.725 5.99 5.99 0 0 1-1.066.53 5.686 5.686 0 0 1-.579.19 6.017 6.017 0 0 1-3.392-.047.645.645 0 0 0-.739.295.713.713 0 0 0-.064.185c-.004.017-.004.037-.007.056-.002.037 0 .074 0 .111a.643.643 0 0 0 .037.162c.007.022.012.05.022.072.037.073.081.14.146.196.327.29.618.61.869.957.13.172.244.351.35.536.219.37.394.762.527 1.165.133.405.221.823.27 1.254.023.211.033.425.033.644 0 .263-.015.52-.05.782a6.247 6.247 0 0 1-.403 1.516 6.221 6.221 0 0 1-.84 1.446 6.544 6.544 0 0 1-.599.659.631.631 0 0 0-.13.191c-.01.025-.015.05-.023.074a.525.525 0 0 0-.032.153.349.349 0 0 0 .003.113c.002.02.002.04.007.059.013.061.032.12.062.18.11.189.305.304.515.319a.611.611 0 0 0 .209-.025 6.018 6.018 0 0 1 1.62-.219 6.149 6.149 0 0 1 2.754.647 6 6 0 0 1 2.232 1.92 6.063 6.063 0 0 1-.217 7.326 6.306 6.306 0 0 1-.399.447v.003a.616.616 0 0 0-.126.192c-.01.022-.012.044-.022.066-.012.05-.024.098-.027.148 0 .041 0 .076.003.115a.588.588 0 0 0 .204.393c.15.136.365.192.569.143a5.988 5.988 0 0 1 2.926.022 6.101 6.101 0 0 1 4.389 4.327c.025.106.084.19.153.265.042.04.083.08.135.111a.635.635 0 0 0 .323.096.63.63 0 0 0 .61-.472 6.22 6.22 0 0 1 .572-1.404c.084-.145.17-.287.264-.423a6.087 6.087 0 0 1 1.746-1.71 6.083 6.083 0 0 1 6.2-.254 6.015 6.015 0 0 1 2.093 1.856c.061.089.123.177.18.27.142.224.275.463.389.711.14.305.253.622.345.954.01.042.03.071.046.106a.628.628 0 0 0 .567.366.638.638 0 0 0 .613-.472 5.89 5.89 0 0 1 .83-1.827 6.064 6.064 0 0 1 1.749-1.71 6.075 6.075 0 0 1 3.313-.982c.482 0 .965.06 1.44.177a.646.646 0 0 0 .702-.304.741.741 0 0 0 .064-.18c.005-.015.005-.032.008-.054a.58.58 0 0 0-.025-.263c-.01-.022-.01-.044-.022-.069a.627.627 0 0 0-.123-.19 6.234 6.234 0 0 1-1.05-1.432 5.981 5.981 0 0 1-.443-1.082 6.13 6.13 0 0 1-.256-1.75c0-.613.104-1.217.286-1.802.091-.295.21-.58.342-.858.06-.114.109-.234.173-.345.172-.302.367-.587.58-.853a6.52 6.52 0 0 1 .705-.722c.252-.222.52-.418.803-.593.279-.172.574-.324.882-.447A6.05 6.05 0 0 1 54.027 36c.072.02.143.024.212.022a.646.646 0 0 0 .51-.32l.002-.002c.027-.06.05-.118.064-.177.003-.02.003-.04.005-.06a.579.579 0 0 0 .003-.112.76.76 0 0 0-.03-.153c-.01-.024-.015-.049-.022-.074a.691.691 0 0 0-.136-.194 5.773 5.773 0 0 1-.805-.944 6.118 6.118 0 0 1-.97-2.242 6.077 6.077 0 0 1 1.926-5.77.624.624 0 0 0 .13-.784.684.684 0 0 0-.138-.167.622.622 0 0 0-.6-.128 6.133 6.133 0 0 1-1.534.258 5.639 5.639 0 0 1-1.02-.054c-1.855-.24-3.562-1.33-4.52-3.016a6.066 6.066 0 0 1-.8-3.002 6.061 6.061 0 0 1 .246-1.716c.162-.55.4-1.074.716-1.564.207-.324.446-.631.72-.917a.65.65 0 0 0 .12-.189c.012-.022.012-.047.02-.069a.58.58 0 0 0 .027-.145c.002-.04 0-.076-.003-.113-.002-.02-.005-.042-.01-.059a.549.549 0 0 0-.063-.177.64.64 0 0 0-.695-.3 6.064 6.064 0 0 1-5.465-1.418 5.844 5.844 0 0 1-.678-.718 5.994 5.994 0 0 1-1.123-2.225.633.633 0 0 0-.409-.435.652.652 0 0 0-.204-.037.582.582 0 0 0-.271.071.629.629 0 0 0-.256.212.575.575 0 0 0-.086.189 6.245 6.245 0 0 1-.345.959 6.188 6.188 0 0 1-.78 1.266c-.311.386-.664.735-1.055 1.032a6.095 6.095 0 0 1-5.7.932z"/>
    </g>
</svg>
