<?xml version="1.0" encoding="utf-8"?>
<!-- Generator: Adobe Illustrator 24.0.0, SVG Export Plug-In . SVG Version: 6.00 Build 0)  -->
<svg version="1.1" id="Layer_1" xmlns="http://www.w3.org/2000/svg" xmlns:xlink="http://www.w3.org/1999/xlink" x="0px" y="0px"
	 viewBox="0 0 484 92" style="enable-background:new 0 0 484 92;" xml:space="preserve">
<style type="text/css">
	.st0{enable-background:new    ;}
	.st1{fill:#FFFFFF;}
	.st2{fill:#84BD00;}
	.st3{fill:#333F48;}
</style>
<title>Speks Ed</title>
<desc>Created with Sketch.</desc>
<g id="Page-1">
	<g id="Blog-Post-HD-Copy-3" transform="translate(-131.000000, -326.000000)">
		<g id="Speks-Ed" transform="translate(111.000000, 352.000000)">
			<g class="st0">
				<path class="st1" d="M42.4,64.4c-2.6-0.7-4.9-2-7.4-2.9c-0.8-0.4-1.7-0.6-2.4-1c-1.4-0.8-3-1.6-4-3c-1.2-1.6-2.4-3.1-3.6-4.8
					c-0.6-0.7-1-1.7-1.6-2.5c-0.7-1.1-1.4-2.2-2.2-3.2c-0.6-0.8-0.6-1.3,0.1-2c0.4-0.1,0.6-0.4,0.8-0.6c1.7-2.4,4-4.3,6-6.2
					c0.6-0.5,1.2-1,1.9-1.3c0.7-0.4,1.4-0.2,1.9,0.4c1.2,1.6,3,2.5,4.3,3.7c0.6,0.6,1.1,1,1.7,1.4c2.2,1.8,4.7,3,7.6,3.4
					c0.6,0,1.2,0.1,1.8,0.1c1.8,0.4,3.4-0.1,4.8-1c0.2-0.1,0.4-0.2,0.5-0.4c1.8-2.3,2.5-5,2.3-7.9c-0.1-1.2-0.8-2.3-1.8-3.1
					c-1.2-1.2-2.6-1.8-4.1-2.5c-1.3-0.5-2.5-1.3-3.7-1.9c-1.2-0.7-2.6-1.4-4-2.2c-0.8-0.5-1.7-1.1-2.6-1.7c-1.9-1.3-4-2.8-6-4.1
					c-0.1-0.1-0.2-0.2-0.5-0.4c-4.4-2.8-6.8-7-7.8-12C24,6,23.9,3.3,23.9,0.5c0.1-1,0.1-2,0.5-3c0.1-0.2,0.2-0.6,0.4-0.8
					c0.6-3.2,2.2-5.9,4.1-8.4c2-2.9,4.6-5.2,7.2-7.3c2-1.6,4.3-2.5,7-3c2.5-0.5,5.2-0.7,7.8-0.7C55.7-22.7,60-21,64-18
					c1.1,0.7,2,1.7,3.1,2.5c1,0.7,1.9,1.3,2.8,2c0.6,0.7,1.3,1.4,1.8,2.2c0.5,0.5,0.4,1.2-0.1,1.7c-0.6,1-1.3,1.9-2.2,2.9
					c-0.6,0.7-1.2,1.4-1.8,2.2c-1.7,1.7-3.4,3.5-5,5.2C62,1.2,61.7,1.1,61,0.7c-1.3-0.7-2.4-1.7-3.6-2.4c-1.4-1-3-1.8-4.8-2
					c-1.7-0.1-3.5-0.1-5.2-0.1c-2.6,0-4.1,1.6-5,3.7c-0.5,1.1-0.6,2.2-0.6,3.4c0.1,0.2,0.1,0.4,0.1,0.5c0.8,1.6,1.6,3.4,3.1,4.3
					c1.2,0.7,2.4,1.3,3.6,1.8c2.8,1,5.4,2.3,8,3.7c3,1.6,5.6,3.5,8.2,5.5c0.7,0.6,1.3,1.2,2,1.7c3,2.8,4.8,6.1,5.3,10.2
					c0.2,2.6,0.5,5.3,0.6,7.9c0.1,3.6-0.8,7.2-2.4,10.6c-0.6,1.6-1.6,2.9-2.6,4.3c-1.3,1.8-2.6,3.7-4.4,5.2
					c-2.2,1.8-4.6,3.4-7.2,4.4c-2,0.8-4.1,1.4-6.1,1.8c-0.7,0.1-1.4,0.1-2.2,0.1C45.9,65.3,44.2,64.9,42.4,64.4z"/>
				<path class="st1" d="M133.8,21.7c-0.7,3.4-2.3,6.5-4.6,9c-0.4,0.4-0.6,0.6-0.8,1c-2.5,3-5.8,4.9-9.6,5.9
					c-3.8,1-7.8,1.2-11.6,1.7c-1.6,0.2-3.2,0.4-4.8,0.5c-0.8,0.1-0.8,0.1-0.8,1c-0.1,4.7-0.2,9.2-0.5,13.8c0,2.9-0.1,5.6-0.4,8.5
					c0,0.2,0,0.5,0,0.8c-0.1,0.6-0.5,0.8-1.2,0.8c-0.7,0-1.4,0-2.2,0c-1.9-0.4-3.7-0.4-5.6-0.1c-2.2,0.1-4.3,0.1-6.5,0.1
					c-0.7,0-1.1-0.5-1.2-1.2c0-1.8-0.4-3.7,0-5.6c0.1-0.8,0.1-1.7,0.1-2.5C84,48.6,83.8,41.8,83.7,35c-0.1-6-0.2-12-0.4-17.9
					C83.2,13.7,83.1,10.3,83,7c-0.1-4-0.5-7.8-0.5-11.8c0.1-4.8,0.4-9.7,0.6-14.5c0-0.6,0.1-1.2,0.2-1.7c0.1-0.6,0.5-1,1.1-1.1
					c0.7-0.2,1.6-0.4,2.4-0.4c1.7-0.1,3.4,0,5,0c1.2,0,2.3-0.1,3.5-0.1c1.3-0.1,2.6-0.2,4-0.1c4.6,0,9,0,13.4,0.1
					c3.6,0,7,0.5,10.3,1.8c2.3,0.8,4.1,2.2,5.4,4.2c2.4,3.5,4.1,7.2,5,11.3c0.6,2.6,1.2,5.3,1.6,7.9c0.4,2.2,0.4,4.3,0.5,6.4
					C135.6,13.3,134.9,17.6,133.8,21.7z M102.2,9.1c0,3.7,0,7.3,0,10.9c0,1.2,0.1,2.3,0.1,3.5c0,0.4,0.2,0.5,0.6,0.5
					c0.7,0,1.4-0.1,2.2-0.2c1.8-0.1,3.7-0.1,5.4-0.8c1.2-0.6,2.4-1,3.2-1.9c1.3-1.3,2.3-3,2.9-4.8c1.3-4,1.7-8,1.2-12.1
					c-0.1-1.8-0.4-3.6-1.3-5.3c-0.2-0.2-0.2-0.5-0.4-0.8c-0.4-1.2-1.2-1.9-2.4-2.3c-2.2-0.7-4.4-1-6.7-0.6c-1.2,0.1-2.4,0.2-3.6,0.4
					c-0.5,0.1-1.1,0-1.3,0.2c-0.2,0.2-0.1,0.8-0.1,1.3c0.1,4.1,0.2,8.2,0.4,12.1H102.2z"/>
				<path class="st1" d="M164.1,45.8c0,0.8,0,1,1,1c0.7,0,1.4,0.1,2.2,0.1c1.2,0.1,2.5,0.2,3.7,0.2c3.2,0.1,6.6,0.1,10,0
					c3,0,6.1-0.2,9.1-0.5c0.5,0,1,0,1.4,0c1.2,0,1.8,0.5,2,1.6c0.2,1,0.4,1.9,0.4,2.9c0,3.1,0,6.2,0,9.5c0,1.4-0.5,1.9-1.8,2.4
					c-2.3,0.7-4.7,0.6-7,0.5c-2-0.1-4.1,0-6,0.1c-3,0-5.9,0-8.9,0c-1.3,0.1-2.5,0.1-4,0.2c-0.2,0-0.6,0-1,0
					C161.6,64,157.8,64,154,64c-2.2,0.1-4.4,0-6.7-0.1c-1.1,0-2.2-0.2-3.2-0.4c-0.7-0.1-1.2-0.5-1.2-1.3c0-0.6,0-1.3,0.1-2
					c0.1-1.8,0.4-3.6,0.5-5.4c0.2-2.8,0.4-5.6,0.6-8.4c0.1-1.7,0.1-3.4,0.2-5c0.1-5.5,0.2-10.9,0.6-16.3c0.1-2.9,0.2-5.6,0.1-8.5
					c-0.1-4.3-0.4-8.5-0.5-12.8c-0.1-4.4-0.1-8.8,0-13.1c0-2.9,0.4-5.6,0.6-8.5c0.1-1.4,0.2-2.8,0.2-4.2c0.1-1.1,0.5-1.6,1.4-1.7
					c0.8,0,1.6,0,2.4,0c0.8,0.1,1.8,0.2,2.6,0.4c3.4,0,6.8,0.1,10.2,0.2c1.8,0,3.7,0.2,5.5,0.4c3.8,0.2,7.7,0.2,11.5,0
					c3.7-0.1,7.6-0.1,11.3-0.2c0.6,0,1.2,0.1,1.8,0.2c0.7,0.1,1.1,0.4,1.2,1.2c0,0.2,0,0.5,0,0.7c0,1.1,0,2.2,0.1,3.1
					c0.1,2.6,0.4,5.3,0.5,7.9c0,0.5,0.1,1.1,0.1,1.6c0.1,1,0.1,1.8-0.2,2.6c-0.1,0.6-0.5,1-1.2,1.1c-0.6,0.1-1.3,0.2-2,0.1
					c-1.7-0.1-3.4-0.1-5.2,0.1c-3.6,0.4-7.2,0.4-10.8,0.4c-1.3,0-2.5,0.2-3.7,0.5c-1.9,0.2-4,0.5-5.9,0.7c-0.8,0.1-0.8,0-0.8,0.8
					c0,3.2,0,6.5,0,9.7c0.1,0.5,0.2,0.6,0.7,0.5c1.1-0.1,2.2-0.1,3.2-0.2c2.4-0.4,4.8-0.1,7.2,0c1.7,0.1,3.4,0,4.9-0.1
					c1.3-0.1,2.5-0.1,3.8-0.2c0.2,0,0.5,0.1,0.7,0.1c1,0.2,1.3,0.7,1.4,1.7c0,2,0.1,4,0.1,6c0.1,1.8,0.1,3.6,0.1,5.5
					c0,1.3-0.2,1.8-1.7,1.9c-1.3,0.1-2.8,0.1-4.2,0.2c-1.1,0.1-2.3,0.2-3.5,0.4c-0.7,0-1.6,0-2.4,0.1c-2.3,0.2-4.6,0.6-6.8,0.8
					c-1,0-1.8,0-2.8,0.4c-0.7,0.4-0.7,0.2-0.8,1.1c0,1.7,0,3.2,0,4.9c0,1.7-0.1,3.4-0.1,5c-0.1,0-0.1,0-0.1,0
					C164.1,39.1,164.1,42.5,164.1,45.8z"/>
				<path class="st1" d="M221.7,4.1c1.3-1.7,2.5-3.4,3.8-4.9c0.8-1.2,1.6-2.4,2.4-3.6c0.5-0.6,0.8-1.3,1.3-1.9c1.7-2,3-4.2,4.4-6.2
					c1.2-2,2.8-4,4.1-5.9c1-1.4,2-3,3-4.4c0-0.1,0.1-0.2,0.1-0.4c0.1-0.8,0.7-1,1.4-1.1c3-0.2,6-0.2,9-0.2c2.3,0.1,4.6,0.4,7,0.5
					c1.1,0.1,1.6,1,1,1.9c-1.1,1.7-2.3,3.2-3.4,4.9c-0.2,0.4-0.6,0.7-0.8,1.1c-2.6,4.9-6.2,9.5-9.4,14.2c-2.4,3.5-4.7,7-7,10.4
					c-0.8,1.1-1.6,2.2-2.3,3.2c-0.4,0.5-0.5,1-0.2,1.4c0.6,1.2,1.1,2.4,1.7,3.5c2,3.6,4.1,7.1,6.1,10.6c0.2,0.4,0.5,0.8,0.7,1.1
					c1.4,2.2,2.8,4.2,4.2,6.4c1.7,2.8,3.4,5.5,5,8.4c2.5,4.2,5,8.5,7.6,12.8c1,1.7,1.9,3.4,2.9,5.2c0.6,1.1,0.5,1.6-0.7,1.9
					c-1,0.2-2,0.4-3.1,0.4c-2.9,0.2-5.9,0.4-8.8,0.5c-0.7,0-1.4,0.1-2,0.2c-0.7,0.1-1.1-0.2-1.4-0.7c-1.6-2.3-3.1-4.4-4.7-6.8
					c-3-4.4-6-8.9-8.9-13.3c-1.8-2.6-3.4-5.5-5.2-8.2c-1.7-2.5-3.6-5-5.4-7.6c0,0-0.1,0-0.2-0.1c-1,1.1-1.9,2.3-2.9,3.5
					c-0.1,0.2-0.1,0.6-0.1,0.8c0.1,8.2,0.2,16.3,0.4,24.5c0,2.3-0.1,4.4-0.1,6.7c-0.1,1.9-0.4,2.2-2.3,2.4c-1.4,0.1-2.9,0.2-4.3,0.2
					c-2,0.1-4.1,0.1-6.1,0.2c-0.6,0-1.2,0.1-1.8,0.1c-1.1,0.2-1.7-0.1-1.7-1.2c-0.1-1.4-0.1-2.9-0.1-4.3c0-1.6,0-3.2,0-4.8
					c-0.4-7.9-0.4-16-0.4-23.9c0-6.1-0.1-12.2-0.2-18.4c0-2.3-0.2-4.7-0.4-7c0-3.1-0.1-6.1-0.1-9.2c0-5.8,0.1-11.5,0.1-17.2
					c0-0.6,0-1.2,0-1.7c0.1-0.8,0.5-1.3,1.3-1.4c0.1,0,0.4,0,0.6,0c3.1-0.1,6.1-0.2,9.2-0.2c1.1,0,2.3-0.1,3.5-0.1
					c1.6,0,2,0.5,2,1.9c0.1,2,0,4,0.1,5.9c0,5.6,0,11.3,0,16.9c0,1.3,0,2.5,0,3.7c0.1,0,0.2,0.1,0.2,0.1
					C221.2,4.7,221.4,4.3,221.7,4.1z"/>
				<path class="st1" d="M290.1,64.4c-2.6-0.7-4.9-2-7.4-2.9c-0.8-0.4-1.7-0.6-2.4-1c-1.4-0.8-3-1.6-4-3c-1.2-1.6-2.4-3.1-3.6-4.8
					c-0.6-0.7-1-1.7-1.6-2.5c-0.7-1.1-1.4-2.2-2.2-3.2c-0.6-0.8-0.6-1.3,0.1-2c0.4-0.1,0.6-0.4,0.8-0.6c1.7-2.4,4-4.3,6-6.2
					c0.6-0.5,1.2-1,1.9-1.3c0.7-0.4,1.4-0.2,1.9,0.4c1.2,1.6,3,2.5,4.3,3.7c0.6,0.6,1.1,1,1.7,1.4c2.2,1.8,4.7,3,7.6,3.4
					c0.6,0,1.2,0.1,1.8,0.1c1.8,0.4,3.4-0.1,4.8-1c0.2-0.1,0.4-0.2,0.5-0.4c1.8-2.3,2.5-5,2.3-7.9c-0.1-1.2-0.8-2.3-1.8-3.1
					c-1.2-1.2-2.6-1.8-4.1-2.5c-1.3-0.5-2.5-1.3-3.7-1.9c-1.2-0.7-2.6-1.4-4-2.2c-0.8-0.5-1.7-1.1-2.6-1.7c-1.9-1.3-4-2.8-6-4.1
					c-0.1-0.1-0.2-0.2-0.5-0.4c-4.4-2.8-6.8-7-7.8-12c-0.5-2.8-0.6-5.5-0.6-8.3c0.1-1,0.1-2,0.5-3c0.1-0.2,0.2-0.6,0.4-0.8
					c0.6-3.2,2.2-5.9,4.1-8.4c2-2.9,4.6-5.2,7.2-7.3c2-1.6,4.3-2.5,7-3c2.5-0.5,5.2-0.7,7.8-0.7c4.9,0.1,9.2,1.8,13.2,4.8
					c1.1,0.7,2,1.7,3.1,2.5c1,0.7,1.9,1.3,2.8,2c0.6,0.7,1.3,1.4,1.8,2.2c0.5,0.5,0.4,1.2-0.1,1.7c-0.6,1-1.3,1.9-2.2,2.9
					c-0.6,0.7-1.2,1.4-1.8,2.2c-1.7,1.7-3.4,3.5-5,5.2c-0.6,0.6-0.8,0.5-1.6,0.1c-1.3-0.7-2.4-1.7-3.6-2.4c-1.4-1-3-1.8-4.8-2
					c-1.7-0.1-3.5-0.1-5.2-0.1c-2.6,0-4.1,1.6-5,3.7c-0.5,1.1-0.6,2.2-0.6,3.4c0.1,0.2,0.1,0.4,0.1,0.5c0.8,1.6,1.6,3.4,3.1,4.3
					c1.2,0.7,2.4,1.3,3.6,1.8c2.8,1,5.4,2.3,8,3.7c3,1.6,5.6,3.5,8.2,5.5c0.7,0.6,1.3,1.2,2,1.7c3,2.8,4.8,6.1,5.3,10.2
					c0.2,2.6,0.5,5.3,0.6,7.9c0.1,3.6-0.8,7.2-2.4,10.6c-0.6,1.6-1.6,2.9-2.6,4.3c-1.3,1.8-2.6,3.7-4.4,5.2
					c-2.2,1.8-4.6,3.4-7.2,4.4c-2,0.8-4.1,1.4-6.1,1.8c-0.7,0.1-1.4,0.1-2.2,0.1C293.6,65.3,291.9,64.9,290.1,64.4z"/>
			</g>
			<g class="st0">
				<path class="st2" d="M375,44.8c0,0.8,0,1,1,1c0.7,0,1.4,0.1,2.2,0.1c1.2,0.1,2.5,0.2,3.7,0.2c3.2,0.1,6.6,0.1,10,0
					c3,0,6.1-0.2,9.1-0.5c0.5,0,1,0,1.4,0c1.2,0,1.8,0.5,2,1.6c0.2,1,0.4,1.9,0.4,2.9c0,3.1,0,6.2,0,9.5c0,1.4-0.5,1.9-1.8,2.4
					c-2.3,0.7-4.7,0.6-7,0.5c-2-0.1-4.1,0-6,0.1c-3,0-5.9,0-8.9,0c-1.3,0.1-2.5,0.1-4,0.2c-0.2,0-0.6,0-1,0
					C372.5,63,368.8,63,365,63c-2.2,0.1-4.4,0-6.7-0.1c-1.1,0-2.2-0.2-3.2-0.4c-0.7-0.1-1.2-0.5-1.2-1.3c0-0.6,0-1.3,0.1-2
					c0.1-1.8,0.4-3.6,0.5-5.4c0.2-2.8,0.4-5.6,0.6-8.4c0.1-1.7,0.1-3.4,0.2-5c0.1-5.5,0.2-10.9,0.6-16.3c0.1-2.9,0.2-5.6,0.1-8.5
					c-0.1-4.3-0.4-8.5-0.5-12.8c-0.1-4.4-0.1-8.8,0-13.1c0-2.9,0.4-5.6,0.6-8.5c0.1-1.4,0.2-2.8,0.2-4.2c0.1-1.1,0.5-1.6,1.4-1.7
					c0.8,0,1.6,0,2.4,0c0.8,0.1,1.8,0.2,2.6,0.4c3.4,0,6.8,0.1,10.2,0.2c1.8,0,3.7,0.2,5.5,0.4c3.8,0.2,7.7,0.2,11.5,0
					c3.7-0.1,7.6-0.1,11.3-0.2c0.6,0,1.2,0.1,1.8,0.2c0.7,0.1,1.1,0.4,1.2,1.2c0,0.2,0,0.5,0,0.7c0,1.1,0,2.2,0.1,3.1
					c0.1,2.6,0.4,5.3,0.5,7.9c0,0.5,0.1,1.1,0.1,1.6c0.1,1,0.1,1.8-0.2,2.6c-0.1,0.6-0.5,1-1.2,1.1c-0.6,0.1-1.3,0.2-2,0.1
					c-1.7-0.1-3.4-0.1-5.2,0.1c-3.6,0.4-7.2,0.4-10.8,0.4c-1.3,0-2.5,0.2-3.7,0.5c-1.9,0.2-4,0.5-5.9,0.7c-0.8,0.1-0.8,0-0.8,0.8
					c0,3.2,0,6.5,0,9.7c0.1,0.5,0.2,0.6,0.7,0.5c1.1-0.1,2.2-0.1,3.2-0.2c2.4-0.4,4.8-0.1,7.2,0c1.7,0.1,3.4,0,4.9-0.1
					c1.3-0.1,2.5-0.1,3.8-0.2c0.2,0,0.5,0.1,0.7,0.1c1,0.2,1.3,0.7,1.4,1.7c0,2,0.1,4,0.1,6c0.1,1.8,0.1,3.6,0.1,5.5
					c0,1.3-0.2,1.8-1.7,1.9c-1.3,0.1-2.8,0.1-4.2,0.2c-1.1,0.1-2.3,0.2-3.5,0.4c-0.7,0-1.6,0-2.4,0.1c-2.3,0.2-4.6,0.6-6.8,0.8
					c-1,0-1.8,0-2.8,0.4c-0.7,0.4-0.7,0.2-0.8,1.1c0,1.7,0,3.2,0,4.9c0,1.7-0.1,3.4-0.1,5c-0.1,0-0.1,0-0.1,0
					C375,38.1,375,41.5,375,44.8z"/>
				<path class="st2" d="M414.8-8.8c0-1,0.2-1.9,0.4-2.9c0-0.7,0.2-1.6,0.2-2.3c0.1-2.9,0.2-5.8,0.4-8.5c0-1.1,0.4-1.4,1.4-1.6
					c0.4-0.1,0.7-0.1,1.1-0.1c2.5,0,5-0.1,7.6-0.1c1-0.1,1.8-0.2,2.6-0.2c1.4-0.1,2.8-0.4,4.2-0.4c2.9,0.1,5.8,0.1,8.6,0.4
					c2.4,0.1,4.7,0.5,7.1,0.7c0.4,0,0.6,0.1,1,0.2c1.1,0.2,2,0.4,3.1,0.6c0.4,0.1,0.6,0.1,0.8,0.2c2.6,1.1,5.3,1.9,7.7,3.6
					c1.9,1.3,3.6,3,4.8,4.9c0.8,1.4,1.8,2.9,2.4,4.3c0.7,1.4,1.2,2.9,1.8,4.3c0.2,0.8,0.5,1.7,0.7,2.4c0.1,0.6,0.2,1.1,0.4,1.6
					c0.4,2,0.6,4.1,0.8,6.1c0.1,0.6,0.1,1.3,0.1,1.9c0.1,2,0.4,4.2,0.4,6.2c0,2.6,0,5.4,0,8.2c-0.1,1-0.1,1.8-0.1,2.8
					c-0.1,1.4-0.2,3-0.5,4.4c0,0.1,0,0.1,0,0.2c0,2.8-1.2,5.3-1.8,8c-0.1,0.5-0.2,1.1-0.4,1.6c-0.5,3.1-1.7,6.1-3.4,8.9
					c-0.8,1.4-1.7,2.8-2.6,4.2c-0.8,1.4-2.3,2.4-3.5,3.6c-2.3,2.2-5.2,3.6-8,4.9c-2.8,1.2-5.6,1.9-8.8,1.9c-2,0-4.2,0.2-6.2,0.4
					c-2.8,0.1-5.5,0.1-8.3,0.2c-3.6,0-7.2-0.1-10.8-0.2c-1.2,0-1.4-0.2-1.6-1.4c-0.2-3.8-0.5-7.7-0.7-11.6
					c-0.2-3.5-0.5-7.2-0.6-10.7c-0.1-1.7,0-3.2,0-4.8C414.5,19.2,414.9,5.3,414.8-8.8z M434.6,25.4c0,0.6,0,1.3,0,1.9
					c0,4.9,0.1,9.7,0.2,14.6c0,0.1,0,0.2,0,0.4c0,0.4,0.1,0.6,0.5,0.6c1-0.1,1.8-0.2,2.8-0.4c1.1,0,2-0.5,2.9-1.1
					c0.6-0.4,1.3-0.7,2-1.1c1.2-0.6,2.4-1.1,3.7-1.7c0.8-0.4,1.6-1.1,2.3-1.8c1.8-2.3,3-4.8,3.6-7.6c0.7-2.6,1.2-5.4,1.4-8.2
					c0.2-2.5,0.1-5,0.2-7.6c0.1-2.4-0.2-4.7-1.1-7C452.7,5,452,3.5,451.2,2c-1.2-2.3-3.1-4-4.9-5.5c-0.4-0.4-0.7-0.6-1.1-0.7
					c-1.3-0.5-2.5-0.8-3.7-1.2c-1.8-0.5-3.7-0.6-5.5-0.5c-0.6,0.1-0.7,0.2-0.7,1c-0.1,1.1-0.1,2.3-0.4,3.5c-0.5,4-0.7,7.9-0.7,11.9
					c-0.1,4.9,0.2,10,0.2,15C434.6,25.4,434.6,25.4,434.6,25.4z"/>
				<path class="st2" d="M494.8,60.1c-1,1.9-2.5,3-4.6,3.4c-3.5,0.7-6.5-0.2-9-2.6c-1.2-1.1-1.4-2.5-1.6-4c-0.2-1.6,0-3,0.7-4.3
					c0.7-1.3,1.4-2.5,2.3-3.7c1-1.4,2.4-2.2,4.2-2.2c0.8,0.1,1.7,0.1,2.5,0.2c2.8,0.1,5.9,2.5,6.2,6.2c0.1,0.8,0.1,1.6,0.1,2.4
					C495.8,57.1,495.5,58.6,494.8,60.1z"/>
			</g>
			<g class="st0">
				<path class="st3" d="M55.9-22.7c0.8,0.4,1.8,0.8,2.6,1.3c1.4,0.7,2.8,1.6,4.1,2.5c1.7,1,3.4,2.2,5,3.1c1.6,1,2.8,2.3,4.1,3.6
					c0.6,0.5,0.6,1.2,0.2,1.9c-0.4,0.8-0.8,1.6-1.2,2.4c-1.6,2.6-3.2,5-5.2,7.4c-0.4,0.2-0.5,0.6-0.8,0.8c-0.6,0.7-1.2,0.8-2,0.4
					c-0.6-0.5-1.2-0.7-1.7-1.3c-1-1.1-2.3-1.7-3.6-2.3c-3-1.3-6-1.6-9.1-1.2c-0.8,0.1-1.6,0.5-2.4,0.7c-2.2,0.8-3.6,4.1-3.2,6
					c0.5,1.9,1.4,3.7,3.2,4.9c1.7,1.2,3.5,1.9,5.3,2.9c1.6,0.7,3.1,1.6,4.7,2.3c3.4,1.7,6.4,3.8,9.2,6.1c1.3,1,2.5,1.9,3.5,3.2
					c1.8,2.5,3.4,5.2,4.4,7.9c1.1,3.4,1.4,6.7,0.7,10.2c-0.6,3.7-1.9,7.3-3.5,10.7c-1.3,2.6-2.9,5-5,7c-0.4,0.4-0.7,0.8-1.1,1.2
					c-1.7,1.8-3.6,3.1-5.8,4.2c-1.3,0.6-2.8,0.8-4.3,1.1c-2.8,0.4-5.5,0.7-8.4,0.6c-0.8,0-1.7-0.1-2.5-0.2c-2.6-0.6-5.2-1.4-7.6-2.5
					c-2.5-1.2-4.7-2.8-6.7-4.4c-1.2-1-2.2-2.2-3.1-3.4c-1.3-1.6-2.5-3-3.6-4.6c-0.5-0.6-0.7-1.4-1-2c-0.2-0.5-0.2-0.8-0.5-1.3
					c-0.1-0.5,0-0.8,0.4-1.2c2-2,4.1-4.2,6.2-6.1c0.7-0.7,1.8-1.3,2.9-1.8c0.6-0.4,1.3-0.2,1.9-0.2c0.2,0,0.6,0.2,0.8,0.5
					c0.8,1.2,1.9,2,3.1,2.9c1.3,0.7,2.5,1.7,3.7,2.5c1.6,1,3.4,1.4,5,2c0.2,0,0.4,0.1,0.5,0.1c2.2,0,4.3,0,6.5-0.7
					c1.4-0.5,2.3-1.3,2.8-2.9c0.4-1.4,0.8-3,0.8-4.6c0-1.4-0.5-2.5-1.7-3.4c-1.9-1.1-4-2-6-2.9c-3.2-1.4-6.5-3-9.5-4.8
					c-2.6-1.4-5.2-3.2-7.6-4.8c-3.1-2-4.7-4.9-5.6-8.3c-1-3.4-1.3-6.8-1.1-10.4c0.1-1.9,0.6-3.8,1.2-5.8c0.8-3.2,1.8-6.2,3.6-9.1
					c1.6-2.5,3.4-4.9,5.9-6.6c1.1-0.7,2-1.4,3-2.2c2.8-1.9,5.6-3.1,9-2.9c0.4,0,0.7,0,1.1,0C50.5-24.4,53.1-23.4,55.9-22.7z
					 M57.5,60.6c0.5-0.1,1-0.2,1.4-0.5c1.6-0.7,3.1-1.6,4.1-3.1c1.6-2.5,3.1-4.8,4.7-7.2c0.5-0.8,1-1.7,1.4-2.6c1-2.5,1.8-5,2.3-7.7
					c0.4-1.8,0.5-3.7,0.1-5.5c-0.2-1.8-1.1-3.5-1.8-5.2c-0.5-1-1-2-1.6-2.9c-2.2-3.1-4.9-5.5-7.9-7.6c-3-1.9-6.2-3.1-9.5-4.4
					c-1.6-0.7-3.1-1.4-4.7-2.3c-0.7-0.4-1.2-0.8-1.8-1.3c-0.6-0.5-1.2-1-1.8-1.4c-1.7-1.7-2.8-3.6-2.4-6.1c0.1-1.6,0.7-2.9,1.2-4.2
					c1.1-2.8,3.1-4.3,6-4.8c2.5-0.5,5-0.2,7.4,0.4c3,0.7,5.8,2,8.5,3.5c0.5,0.2,0.7,0.2,1-0.1c0.6-0.7,1.2-1.3,1.7-2
					c1-1.6,2-3.1,3-4.6c0-0.1,0-0.1,0.1-0.2c0.2-0.4,0.1-0.7-0.2-1c-0.1-0.1-0.4-0.4-0.6-0.5c-1.2-1-2.5-1.9-3.7-3
					c-2.2-1.8-4.4-3.4-7-4.9c-1.4-0.8-2.9-1.6-4.4-2.2c-2-0.8-4.1-0.8-6.2-0.7c-2.4,0.2-4.6,0.8-6.7,2c-1.7,0.8-3,2.2-4.6,3.2
					c-1.7,1.2-3,2.9-4.1,4.7c-2,3.5-3.6,7.1-4.6,10.9c-0.6,2-1.1,4.1-0.8,6.1c0.1,1.6,0.4,3.2,0.5,4.8c0.2,1.9,0.8,3.6,1.8,5.4
					c0.6,1.1,1.4,2.2,2.5,2.9c1.1,0.7,2,1.3,2.9,2c1.9,1.6,4.2,2.9,6.4,4.2c2.9,1.7,6,2.9,9,4.3c0.6,0.2,1.1,0.5,1.7,0.7
					c1.6,0.5,3,1.1,4.3,2c0.7,0.5,1.3,1.1,1.6,1.8c0.8,1.7,1.3,3.4,1.1,5.2c-0.1,0.7-0.1,1.4-0.2,2c-0.5,1.8-1,3.4-2.3,4.6
					c-1.8,1.7-3.8,2.3-6.1,2.5c-1.4,0-2.8-0.2-4.1-0.5c-3.8-0.6-7.4-2-10.6-4.6c-0.7-0.6-1.3-1.2-2-1.7c-0.5-0.4-1-1-1.3-1
					c-0.6,0.1-1.1,0.6-1.6,1c-1.9,1.8-3.8,3.6-5.8,5.4c-0.4,0.4-0.5,0.6-0.2,1c0.4,1.1,1,1.9,1.7,2.8c1.8,2.2,3.5,4.3,5.8,6
					c0.6,0.4,1.1,0.8,1.6,1.3c1.2,1.2,2.6,2.2,4.1,2.9c3,1.2,6.1,1.9,9.4,1.7C50,62.2,53.7,61.5,57.5,60.6z"/>
				<path class="st3" d="M83.5,29.8c0-2.2-0.2-4.2-0.4-6.2c0-1.6,0-3.1-0.2-4.6c-0.5-5.8-0.5-11.6-0.5-17.4c0-1.8,0.2-3.7,0.2-5.5
					c0.2-4.4,0.5-9,0.7-13.4c0.1-1.8,0.4-3.6,0.6-5.4c0.1-1.1,0.5-1.3,1.4-1.4c2-0.2,4-0.5,6-0.6c2.5-0.2,4.9-0.4,7.4-0.6
					c1.3,0,2.8,0,4.1,0c3.4,0,6.6,0,10,0.1c4.1,0.2,7.9,1.1,11.6,3c1.3,0.6,2.8,1.1,4,1.9c1.2,0.7,2,1.6,2.9,2.6
					c1.7,2.3,3,4.9,3.7,7.7c0.7,2.5,1.3,5,1.9,7.7c0.7,3.5,1,7.2,0.7,10.8c-0.2,2.9-0.5,5.8-0.8,8.8c-0.2,2.4-1,4.9-2,7.1
					c-1.9,3.7-4.1,7.2-7.3,10c-1.9,1.7-4,3.1-6.6,3.6c-1.8,0.5-3.6,1-5.4,1.4c-0.7,0.1-1.4,0.2-2.2,0.4c-2.8,0.5-5.6,0.8-8.4,1.3
					c-0.6,0.1-0.7,0.2-0.7,1c-0.1,1.2-0.1,2.3-0.2,3.5c-0.5,4.7-0.6,9.4-0.6,14.2c0,1,0.1,1.9,0.1,2.9c0,1.3-0.4,1.7-1.7,1.8
					c-0.7,0-1.6-0.1-2.2-0.1c-0.2,0-0.4-0.1-0.5-0.1c-4.1-0.1-8.2-0.2-12.4-0.4c-1.8-0.1-2.6-1-2.6-2.8c-0.2-3.2-0.5-6.5-0.7-9.6
					c0-0.7,0-1.4,0-2.2c0-3.4,0-6.8,0-10.2C83.5,35.8,83.5,32.8,83.5,29.8z M134.8,2.7c-0.2-3.7-0.8-7.3-2-10.8
					c-0.2-0.8-0.5-1.7-0.8-2.4c-0.8-1.7-1.7-3.4-2.6-4.9c-1-1.9-2.4-3.2-4.2-4.2c-3.1-1.7-6.5-2.4-10-2.4c-0.7-0.1-1.3-0.1-2-0.1
					c-1.4,0-3,0-4.4,0.1c-3,0.2-6,0.5-9,0.7c-3.1,0.2-6.4,0.2-9.6,0.5c-1.2,0-2.5,0.2-3.7,0.4c-0.4,0-0.6,0.1-0.6,0.6
					c0,0.5,0,1.1,0,1.6c0,2.4,0,4.8,0,7.2c-0.1,2.4-0.2,4.9-0.4,7.3c0,1.4,0.1,2.8,0.1,4.1c0.2,4.2,0.4,8.4,0.5,12.7
					c0.1,2.8,0.4,5.4,0.5,8.2c0.1,3.2,0.4,6.4,0.6,9.5c0.1,4.7,0.4,9.5,0.5,14.2c0.1,4.2-0.1,8.4-0.4,12.5c0,1-0.1,1.8-0.2,2.6
					c0,1.2,0,1.3,1.2,1.2c1.1,0,2.3-0.1,3.5-0.2c2.6-0.1,5.4-0.2,8-0.4c0.7,0,0.7,0,0.7-0.7c0.1-2.6,0.1-5.4,0.2-8
					c0.1-3.6,0.2-7.1,0.4-10.7c0-1.7,0.4-1.9,1.9-2.2c0.1,0,0.1,0,0.2,0c1.8-0.4,3.6-0.6,5.4-0.8c2.6-0.5,5.2-1.2,7.8-1.6
					c1.9-0.4,3.8-0.8,5.6-1.4c1.7-0.6,3.2-1.6,4.6-2.8c2.8-2.8,4.9-6.1,6.1-10c1.6-4.8,2.2-9.8,2.2-14.9
					C134.8,6,134.9,4.3,134.8,2.7z M100.6-0.7c0.1-1.9,0.1-3.7,0.5-5.6c0.2-0.8,0.7-1.4,1.6-1.7c1.1-0.2,2.2-0.7,3.4-1
					c3-0.6,6-0.4,8.6,1.4c1.1,0.6,2.3,1.2,3.2,2.2c1.2,1.3,1.6,2.9,2,4.4c1.2,3.7,1,7.4,0.7,11.2c-0.2,1.9-0.5,3.8-1.1,5.6
					c-0.4,1.1-0.8,2.2-1.3,3.1c-0.1,0.4-0.4,0.7-0.6,1c-1.3,1.1-2.5,2.2-4.3,2.6c-1.6,0.4-3.1,1-4.7,1.6c-2,0.8-4.1,0.6-6.2,0.5
					c-0.2,0-0.5-0.1-0.7-0.1c-0.6-0.1-0.8-0.4-1-1c-0.1-0.4-0.1-0.6-0.1-1c0-3,0-5.9,0-8.8c0-1.6,0-3,0-4.6
					C100.6,5.8,100.6,2.5,100.6-0.7z M102.8,13.2c0,2.5,0.1,5,0.1,7.7c0,1,0.1,1.1,1.2,1c0,0,0.1,0.1,0.2,0c2.3-0.2,4.6-0.5,6.7-1.4
					c2-0.8,4-1.9,4.8-4.3c0.1-0.4,0.4-0.6,0.5-1c0.5-1.4,1.1-3,1.3-4.4c0.6-3.5,0.6-7-0.4-10.3c-1-3-2.5-5.4-6-6.1
					c-2.5-0.5-5-0.5-7.4-0.2c-0.5,0-0.6,0.1-0.6,0.6c0,1.4-0.1,3-0.2,4.4c0,2.6-0.1,5.2-0.2,7.8c0,1.8,0,3.6,0,5.4
					C102.8,12.6,102.8,12.9,102.8,13.2z"/>
				<path class="st3" d="M142.9,15.8c0-2.8,0-5.6,0-8.4c0-4.4,0-8.9,0-13.3c0-3.2,0.1-6.6,0.4-10c0-1.9,0.2-4,0.4-5.9
					c0-0.4,0-0.7,0-1c-0.1-0.8,0.2-1.2,1-1.3c1-0.1,1.9-0.1,2.9-0.1c2.3-0.1,4.4-0.1,6.6-0.1c3.1-0.1,6.2-0.2,9.4-0.4
					c2.3,0,4.4,0,6.7,0c2-0.1,4.1-0.4,6.1-0.4c3.4,0,6.8,0.1,10.2,0.1c0.6,0.1,1.2,0.2,1.8,0.4c0.6,0,1.1,0,1.6-0.1
					c1.6-0.2,2,0.1,2.2,1.7c0.2,2.4,0.5,4.8,0.7,7.2s0.5,4.7,0.5,7.1c0,0.2,0,0.5,0,0.7c-0.1,0.6-0.5,1-1.1,1.1
					c-1,0.1-1.8,0.2-2.8,0.4c-3.7,0.2-7.6,0.6-11.3,1c-3.2,0.4-6.4,0.6-9.6,0.8c-1,0.1-1.9,0.1-3,0.2c-0.5,0-0.7,0.2-0.8,0.8
					c-0.1,3-0.4,6.1-0.6,9.1c0,0.1,0,0.4,0,0.5c-0.1,0.5,0.1,0.7,0.6,0.7c0.6-0.1,1.2-0.1,1.8,0c3.7,0.1,7.4,0.2,11.2,0.4
					c2,0,4.2,0.1,6.2-0.4c1.2-0.2,1.6,0,1.9,1.2c0.1,0.4,0.2,0.8,0.2,1.2c0.1,1.6,0.2,3.1,0.4,4.7c0,1.3,0.1,2.5,0.2,3.8
					c0,0.7,0.1,1.4,0,2.2c0,1-0.5,1.4-1.4,1.7c-3.5,0.6-7,1-10.6,1.2c-1.6,0-3.2,0.2-4.8,0.4c-1.8,0.1-3.6,0.2-5.4,0.4
					c-0.8,0-1,0-1,1c0.1,4.6,0.2,9.1,0.2,13.8c0,2.2,0,4.4,0,6.6c-0.1,0.5,0.1,0.6,0.5,0.6c3.5-0.4,6.8,0,10.3-0.5
					c1.8-0.2,3.6-0.1,5.4,0c2.2,0,4.2,0.1,6.2,0.2c1.9,0.1,3.8,0.2,5.9,0c0.7-0.1,1.2,0.2,1.2,1.1c0.1,1.2,0.2,2.5,0.2,3.7
					c0.1,2.4,0.1,4.8,0.2,7.1c0,1.3,0.2,2.6,0.4,3.8c0.2,1.2,0,1.6-1.3,1.7c-2.9,0.2-5.8,0.5-8.6,0.7c-1.9,0.2-3.8,0.4-5.8,0.4
					c-6.1,0-12.2,0-18.4,0c-4.2,0-8.3,0-12.4,0c-1.1,0-2,0-3.1,0c-1,0-1.6-0.5-1.7-1.6c0-1.2,0-2.4,0-3.6c0-5.3,0-10.6,0-15.8
					c0.1-3.1,0.2-6.2,0.4-9.2c0.1-3.2,0.1-6.4,0-9.5C143,21.1,142.9,18.4,142.9,15.8z M145,32.8c0.1,6.1,0.2,12.1,0.2,18.1
					c0,3.1,0.1,6.2,0.1,9.2c0,1,0,0.8,0.8,1c1.7,0,3.5,0,5.3,0.1c1.1,0,2-0.1,3.1-0.1c1.6-0.1,3.2-0.2,4.8-0.2
					c1.1,0,2.3,0.1,3.4,0.1c6.6,0,13.2,0,19.9,0c1.2-0.1,2.4-0.2,3.6-0.4c1.7-0.1,3.2-0.4,4.8-0.6c0.7-0.1,0.7-0.1,0.7-0.8
					c-0.2-3.5-0.6-7-0.8-10.6c0-0.8-0.1-0.8-0.8-1c-3-0.1-5.9-0.5-8.9-0.5c-3.1-0.1-6.1-0.1-9.1-0.1c-3.1,0-6.4,0.1-9.5,0.2
					c-1,0-1.4-0.5-1.4-1.6c0-1.7,0-3.5,0-5.3c0-5,0-10.2,0.1-15.4c0-1.3,0.1-2.8,0.1-4.1c0.1-1.2,0.7-1.7,1.8-1.4
					c1.7,0.4,3.4,0.4,5,0.4c5-0.4,10.2-0.7,15.2-1.1c0.8,0,1,0,0.8-1c-0.1-2.5-0.4-5.2-0.5-7.7c-0.1-0.7-0.1-0.7-0.7-0.7
					c-1.4,0.2-2.9,0.2-4.3,0.1c-1.9-0.1-3.8-0.2-5.6-0.2c-2.6-0.1-5.3,0-7.9,0.1c-1.2,0-3.6,0.1-3.6-1.7c0-2.3,0-4.6,0.1-6.8
					c0.1-2,0.2-4.2,0.5-6.2c0.2-1.7,0.7-2,2.2-1.9c0.6,0.1,1.3,0,1.9-0.2c1.6-0.4,3-0.7,4.4-0.8c2-0.4,4.1-0.4,6.1-0.2
					c4.2,0.1,8.4,0.4,12.6-0.4c0.6-0.1,0.7-0.4,0.7-0.8c-0.1-1.4-0.2-2.9-0.4-4.2c-0.1-2.3-0.4-4.4-0.5-6.6c0-0.5-0.1-0.8-0.1-1.3
					c0.1-0.5-0.1-0.6-0.6-0.6c-1,0-1.8,0-2.6,0c-2.3-0.1-4.7-0.2-7-0.4c-5.5-0.1-11,0.2-16.6,0.5c-2.6,0.1-5.2,0.1-7.8,0.4
					c-2.2,0.1-4.3,0.5-6.5,0.7c-0.7,0-1.3,0.1-1.9,0.1c-0.5,0-0.7,0.2-0.7,0.8c0,1.1-0.2,2-0.2,3.1c-0.1,1.2-0.2,2.4-0.2,3.6
					c0.1,3.5,0.2,7.1,0.2,10.6c0,3-0.2,6-0.2,9.1c0,4.1,0,8.3,0,12.4c0,4.8,0,9.6,0,14.3C145.1,32.8,145.1,32.8,145,32.8z"/>
				<path class="st3" d="M228.4-4.6c1.6-2,3-4.1,4.6-6.1c1.1-1.6,1.9-3.1,3-4.8c1.8-2.6,3.6-5.3,5.3-7.9c0.4-0.5,0.7-0.8,1.2-1
					c1.4-0.1,2.8-0.4,4.2-0.4c1.9-0.1,3.8,0,5.8,0.1c1.9,0,3.7,0.1,5.6,0.2c0.1,0,0.2,0,0.5,0c1,0.1,1.3,0.6,1,1.6
					c-0.1,0.4-0.2,0.6-0.5,0.8c-2,3.4-4.1,6.8-6.1,10.2c-1.3,2-2.6,4-4,6c-1.7,2.5-3.2,5-4.9,7.4c-2.2,3.1-4.4,6.2-6.6,9.5
					c-0.4,0.4-0.5,0.7-0.2,1.1c0.2,0.5,0.6,1.1,0.8,1.7c2,3.4,4,6.7,5.9,10.1c1.2,2,2.4,4.1,3.6,6.2c1.3,2.4,2.6,4.9,4,7.4
					c1,1.7,1.9,3.4,3,4.9c2.5,3.7,5,7.4,7.2,11.4c0.7,1.3,1.6,2.6,2.4,4c0.5,1,1.1,1.9,1.4,3c0.6,1.8,0,2.5-1.8,2.5
					c-3.1,0.1-6.2,0.1-9.4,0.1c-1.2,0.1-2.4,0.1-3.5,0c-1.1,0-2.2,0-3.1-0.1c-0.6-0.1-1-0.4-1.3-1c-1.1-2-2.3-4.1-3.4-6.1
					c-0.5-0.7-1-1.6-1.3-2.3c-1.4-2.5-2.9-4.9-4.2-7.3c-1.8-3.5-4.3-6.4-6.6-9.6c-1.8-2.5-3.7-5.2-4.8-8.3c-0.1-0.6-0.5-1.2-0.8-1.9
					c-0.8,1-1.7,2-2.5,3c-0.1,0.2-0.1,0.6-0.1,1c-0.1,2.2-0.1,4.3-0.1,6.5c0,2.2,0,4.4,0,6.6c-0.1,4.3-0.2,8.8-0.4,13.1
					c-0.1,1.7-0.2,3.2-0.4,4.9c-0.1,1.9-0.4,1.8-2.3,2.5c-0.6,0.2-1.2,0.2-1.8,0.2c-2.3,0-4.7-0.1-7-0.1c-1.3,0-2.6,0-4,0
					c-2.9-0.1-2.9-0.8-3-3c0-2.5-0.1-5-0.1-7.6c0-3.2,0.1-6.6,0.1-9.8c0.1-3.8,0.1-7.8,0.2-11.6c0.1-3.2,0.4-6.5,0.5-9.7
					c0.1-2,0.2-4.1,0.2-6.1c0-4.6-0.1-9.1-0.1-13.7c0-4.2,0-8.5,0-12.7c-0.1-4-0.2-8-0.4-12c0-0.8,0-1.8,0.1-2.6
					c0-0.7,0.2-1.1,1-1.2c0.4,0,0.7-0.1,1.1-0.1c3.1,0,6.2,0,9.4,0c1.6,0,3.1,0.1,4.6,0.1c0.7,0.1,1.1,0.4,1.2,1.1s0.2,1.6,0.2,2.3
					c0,5.8-0.1,11.5-0.1,17.3c0,2,0,4.2,0,6.2c0,0.7-0.1,1.6-0.1,2.3C224.1,1.1,226.4-1.7,228.4-4.6z M261.8,60.1
					c-1.3-2.2-2.6-4.4-3.8-6.7c-2.2-3.8-4.4-7.7-6.6-11.5c-0.4-0.6-0.7-1.3-1.1-1.9c-1-1.4-1.9-2.9-2.9-4.2
					c-1.6-2.6-3.1-5.2-4.7-7.7c-2-3.2-4.1-6.6-6.1-10c-0.7-1.3-1.3-2.9-2-4.3c-0.6-1-0.2-1.9,0.4-2.9c0.5-0.7,1.1-1.4,1.4-2.2
					c1.1-1.8,2-3.6,3.1-5.3c1.2-2,2.4-4.1,3.6-6.1c1.4-2.4,2.9-4.9,4.4-7.3c1.2-1.9,2.6-3.8,3.8-5.9c1.1-1.6,2-3,3-4.6
					c0.1-0.2,0.4-0.6,0.6-1.2c-1,0-1.7,0.1-2.4,0c-2.9,0-5.6-0.1-8.5-0.2c-0.4,0-0.7,0.1-0.8,0.5c-0.7,1.1-1.6,2.2-2.3,3.4
					c-1.9,3.1-4,6.1-6.1,9.1c-1.4,1.9-2.9,3.8-4.4,5.9c-2.4,3.2-4.8,6.5-7.2,9.6c-0.4,0.4-0.7,0.8-1.1,1.1c-0.7,0.6-1.6,0.5-2.4,0.1
					c-0.6-0.2-1.1-0.8-1.1-1.7c-0.1-3-0.2-6.1-0.2-9.1c-0.1-3,0-6,0.1-9c0.1-1.9,0.2-4,0.4-6c0-1.3,0.1-2.8,0.2-4.1
					c0-0.7,0-0.7-0.7-0.7c-0.8,0-1.8-0.1-2.6-0.1c-2.5,0.1-4.9,0.2-7.4,0.2c-0.5,0-0.8,0.1-1.3,0.1c-0.5,0.1-0.6,0.4-0.6,0.7
					c0.1,0.1,0.1,0.4,0.1,0.5c0.1,3.1,0.2,6.4,0.4,9.6c0,4.1,0.1,8.2,0.1,12.2c0,7.6,0,15.1-0.1,22.7c0,0.2,0,0.5,0,0.7
					c-0.1,3-0.4,6-0.4,9.1c-0.1,6.2-0.2,12.5-0.4,18.8c0,0.4,0,0.8,0,1.3c0,2.8,0,5.5-0.1,8.3c0,0.4,0.2,0.5,0.6,0.6
					c4,0.2,8,0.4,12,0.4c1,0,1,0,1-1c0.1-2.9,0.1-5.8,0.1-8.6c0-2,0-4.2-0.1-6.4c0-4,0-7.9,0-12c0-1.2-0.1-2.4-0.1-3.6
					c0-0.8,0.4-1.4,1.1-1.9c0.7-0.7,1.3-1.4,2-2.2c0.4-0.5,0.7-1,1.2-1.4c0.4-0.4,0.7-0.7,1.1-0.8c1-0.5,1.6-0.2,2,0.7
					c0.4,0.6,0.6,1.1,0.8,1.7c0.6,1.8,1.7,3.4,2.9,4.9c1.6,2.2,3.1,4.3,4.7,6.6c1.3,2,2.5,4.2,3.7,6.1c0.6,1,1.3,1.8,1.9,2.8
					c1.7,2.4,3.4,4.9,4.4,7.7c0,0.1,0.1,0.2,0.2,0.4c1,1.8,2.2,3.5,3.1,5.2c0.4,0.7,0.7,0.8,1.4,0.8c3.5-0.1,7-0.2,10.4-0.5
					c0.5,0,1-0.1,1.4-0.2C261.9,60.3,261.9,60.2,261.8,60.1z"/>
				<path class="st3" d="M303.5-22.7c0.8,0.4,1.8,0.8,2.6,1.3c1.4,0.7,2.8,1.6,4.1,2.5c1.7,1,3.4,2.2,5,3.1c1.6,1,2.8,2.3,4.1,3.6
					c0.6,0.5,0.6,1.2,0.2,1.9c-0.4,0.8-0.8,1.6-1.2,2.4c-1.6,2.6-3.2,5-5.2,7.4c-0.4,0.2-0.5,0.6-0.8,0.8c-0.6,0.7-1.2,0.8-2,0.4
					c-0.6-0.5-1.2-0.7-1.7-1.3c-1-1.1-2.3-1.7-3.6-2.3c-3-1.3-6-1.6-9.1-1.2c-0.8,0.1-1.6,0.5-2.4,0.7c-2.2,0.8-3.6,4.1-3.2,6
					c0.5,1.9,1.4,3.7,3.2,4.9c1.7,1.2,3.5,1.9,5.3,2.9c1.6,0.7,3.1,1.6,4.7,2.3c3.4,1.7,6.4,3.8,9.2,6.1c1.3,1,2.5,1.9,3.5,3.2
					c1.8,2.5,3.4,5.2,4.4,7.9c1.1,3.4,1.4,6.7,0.7,10.2c-0.6,3.7-1.9,7.3-3.5,10.7c-1.3,2.6-2.9,5-5,7c-0.4,0.4-0.7,0.8-1.1,1.2
					c-1.7,1.8-3.6,3.1-5.8,4.2c-1.3,0.6-2.8,0.8-4.3,1.1c-2.8,0.4-5.5,0.7-8.4,0.6c-0.8,0-1.7-0.1-2.5-0.2c-2.6-0.6-5.2-1.4-7.6-2.5
					c-2.5-1.2-4.7-2.8-6.7-4.4c-1.2-1-2.2-2.2-3.1-3.4c-1.3-1.6-2.5-3-3.6-4.6c-0.5-0.6-0.7-1.4-1-2c-0.2-0.5-0.2-0.8-0.5-1.3
					c-0.1-0.5,0-0.8,0.4-1.2c2-2,4.1-4.2,6.2-6.1c0.7-0.7,1.8-1.3,2.9-1.8c0.6-0.4,1.3-0.2,1.9-0.2c0.2,0,0.6,0.2,0.8,0.5
					c0.8,1.2,1.9,2,3.1,2.9c1.3,0.7,2.5,1.7,3.7,2.5c1.6,1,3.4,1.4,5,2c0.2,0,0.4,0.1,0.5,0.1c2.2,0,4.3,0,6.5-0.7
					c1.4-0.5,2.3-1.3,2.8-2.9c0.4-1.4,0.8-3,0.8-4.6c0-1.4-0.5-2.5-1.7-3.4c-1.9-1.1-4-2-6-2.9c-3.2-1.4-6.5-3-9.5-4.8
					c-2.6-1.4-5.2-3.2-7.6-4.8c-3.1-2-4.7-4.9-5.6-8.3c-1-3.4-1.3-6.8-1.1-10.4c0.1-1.9,0.6-3.8,1.2-5.8c0.8-3.2,1.8-6.2,3.6-9.1
					c1.6-2.5,3.4-4.9,5.9-6.6c1.1-0.7,2-1.4,3-2.2c2.8-1.9,5.6-3.1,9-2.9c0.4,0,0.7,0,1.1,0C298.1-24.4,300.8-23.4,303.5-22.7z
					 M305.2,60.6c0.5-0.1,1-0.2,1.4-0.5c1.6-0.7,3.1-1.6,4.1-3.1c1.6-2.5,3.1-4.8,4.7-7.2c0.5-0.8,1-1.7,1.4-2.6
					c1-2.5,1.8-5,2.3-7.7c0.4-1.8,0.5-3.7,0.1-5.5c-0.2-1.8-1.1-3.5-1.8-5.2c-0.5-1-1-2-1.6-2.9c-2.2-3.1-4.9-5.5-7.9-7.6
					c-3-1.9-6.2-3.1-9.5-4.4c-1.6-0.7-3.1-1.4-4.7-2.3c-0.7-0.4-1.2-0.8-1.8-1.3c-0.6-0.5-1.2-1-1.8-1.4c-1.7-1.7-2.8-3.6-2.4-6.1
					c0.1-1.6,0.7-2.9,1.2-4.2c1.1-2.8,3.1-4.3,6-4.8c2.5-0.5,5-0.2,7.4,0.4c3,0.7,5.8,2,8.5,3.5c0.5,0.2,0.7,0.2,1-0.1
					c0.6-0.7,1.2-1.3,1.7-2c1-1.6,2-3.1,3-4.6c0-0.1,0-0.1,0.1-0.2c0.2-0.4,0.1-0.7-0.2-1c-0.1-0.1-0.4-0.4-0.6-0.5
					c-1.2-1-2.5-1.9-3.7-3c-2.2-1.8-4.4-3.4-7-4.9c-1.4-0.8-2.9-1.6-4.4-2.2c-2-0.8-4.1-0.8-6.2-0.7c-2.4,0.2-4.6,0.8-6.7,2
					c-1.7,0.8-3,2.2-4.6,3.2c-1.7,1.2-3,2.9-4.1,4.7c-2,3.5-3.6,7.1-4.6,10.9c-0.6,2-1.1,4.1-0.8,6.1c0.1,1.6,0.4,3.2,0.5,4.8
					c0.2,1.9,0.8,3.6,1.8,5.4c0.6,1.1,1.4,2.2,2.5,2.9c1.1,0.7,2,1.3,2.9,2c1.9,1.6,4.2,2.9,6.4,4.2c2.9,1.7,6,2.9,9,4.3
					c0.6,0.2,1.1,0.5,1.7,0.7c1.6,0.5,3,1.1,4.3,2c0.7,0.5,1.3,1.1,1.6,1.8c0.8,1.7,1.3,3.4,1.1,5.2c-0.1,0.7-0.1,1.4-0.2,2
					c-0.5,1.8-1,3.4-2.3,4.6c-1.8,1.7-3.8,2.3-6.1,2.5c-1.4,0-2.8-0.2-4.1-0.5c-3.8-0.6-7.4-2-10.6-4.6c-0.7-0.6-1.3-1.2-2-1.7
					c-0.5-0.4-1-1-1.3-1c-0.6,0.1-1.1,0.6-1.6,1c-1.9,1.8-3.8,3.6-5.8,5.4c-0.4,0.4-0.5,0.6-0.2,1c0.4,1.1,1,1.9,1.7,2.8
					c1.8,2.2,3.5,4.3,5.8,6c0.6,0.4,1.1,0.8,1.6,1.3c1.2,1.2,2.6,2.2,4.1,2.9c3,1.2,6.1,1.9,9.4,1.7
					C297.7,62.2,301.4,61.5,305.2,60.6z"/>
				<path class="st3" d="M354.2,15.8c0-2.8,0-5.6,0-8.4c0-4.4,0-8.9,0-13.3c0-3.2,0.1-6.6,0.4-10c0-1.9,0.2-4,0.4-5.9
					c0-0.4,0-0.7,0-1c-0.1-0.8,0.2-1.2,1-1.3c1-0.1,1.9-0.1,2.9-0.1c2.3-0.1,4.4-0.1,6.6-0.1c3.1-0.1,6.2-0.2,9.4-0.4
					c2.3,0,4.4,0,6.7,0c2-0.1,4.1-0.4,6.1-0.4c3.4,0,6.8,0.1,10.2,0.1c0.6,0.1,1.2,0.2,1.8,0.4c0.6,0,1.1,0,1.6-0.1
					c1.6-0.2,2,0.1,2.2,1.7c0.2,2.4,0.5,4.8,0.7,7.2s0.5,4.7,0.5,7.1c0,0.2,0,0.5,0,0.7c-0.1,0.6-0.5,1-1.1,1.1
					c-1,0.1-1.8,0.2-2.8,0.4c-3.7,0.2-7.6,0.6-11.3,1c-3.2,0.4-6.4,0.6-9.6,0.8c-1,0.1-1.9,0.1-3,0.2c-0.5,0-0.7,0.2-0.8,0.8
					c-0.1,3-0.4,6.1-0.6,9.1c0,0.1,0,0.4,0,0.5c-0.1,0.5,0.1,0.7,0.6,0.7c0.6-0.1,1.2-0.1,1.8,0c3.7,0.1,7.4,0.2,11.2,0.4
					c2,0,4.2,0.1,6.2-0.4c1.2-0.2,1.6,0,1.9,1.2c0.1,0.4,0.2,0.8,0.2,1.2c0.1,1.6,0.2,3.1,0.4,4.7c0,1.3,0.1,2.5,0.2,3.8
					c0,0.7,0.1,1.4,0,2.2c0,1-0.5,1.4-1.4,1.7c-3.5,0.6-7,1-10.6,1.2c-1.6,0-3.2,0.2-4.8,0.4c-1.8,0.1-3.6,0.2-5.4,0.4
					c-0.8,0-1,0-1,1c0.1,4.6,0.2,9.1,0.2,13.8c0,2.2,0,4.4,0,6.6c-0.1,0.5,0.1,0.6,0.5,0.6c3.5-0.4,6.8,0,10.3-0.5
					c1.8-0.2,3.6-0.1,5.4,0c2.2,0,4.2,0.1,6.2,0.2c1.9,0.1,3.8,0.2,5.9,0c0.7-0.1,1.2,0.2,1.2,1.1c0.1,1.2,0.2,2.5,0.2,3.7
					c0.1,2.4,0.1,4.8,0.2,7.1c0,1.3,0.2,2.6,0.4,3.8c0.2,1.2,0,1.6-1.3,1.7c-2.9,0.2-5.8,0.5-8.6,0.7c-1.9,0.2-3.8,0.4-5.8,0.4
					c-6.1,0-12.2,0-18.4,0c-4.2,0-8.3,0-12.4,0c-1.1,0-2,0-3.1,0c-1,0-1.6-0.5-1.7-1.6c0-1.2,0-2.4,0-3.6c0-5.3,0-10.6,0-15.8
					c0.1-3.1,0.2-6.2,0.4-9.2c0.1-3.2,0.1-6.4,0-9.5C354.3,21.1,354.2,18.4,354.2,15.8z M356.3,32.8c0.1,6.1,0.2,12.1,0.2,18.1
					c0,3.1,0.1,6.2,0.1,9.2c0,1,0,0.8,0.8,1c1.7,0,3.5,0,5.3,0.1c1.1,0,2-0.1,3.1-0.1c1.6-0.1,3.2-0.2,4.8-0.2
					c1.1,0,2.3,0.1,3.4,0.1c6.6,0,13.2,0,19.9,0c1.2-0.1,2.4-0.2,3.6-0.4c1.7-0.1,3.2-0.4,4.8-0.6c0.7-0.1,0.7-0.1,0.7-0.8
					c-0.2-3.5-0.6-7-0.8-10.6c0-0.8-0.1-0.8-0.8-1c-3-0.1-5.9-0.5-8.9-0.5c-3.1-0.1-6.1-0.1-9.1-0.1c-3.1,0-6.4,0.1-9.5,0.2
					c-1,0-1.4-0.5-1.4-1.6c0-1.7,0-3.5,0-5.3c0-5,0-10.2,0.1-15.4c0-1.3,0.1-2.8,0.1-4.1c0.1-1.2,0.7-1.7,1.8-1.4
					c1.7,0.4,3.4,0.4,5,0.4c5-0.4,10.2-0.7,15.2-1.1c0.8,0,1,0,0.8-1c-0.1-2.5-0.4-5.2-0.5-7.7c-0.1-0.7-0.1-0.7-0.7-0.7
					c-1.4,0.2-2.9,0.2-4.3,0.1c-1.9-0.1-3.8-0.2-5.6-0.2c-2.6-0.1-5.3,0-7.9,0.1c-1.2,0-3.6,0.1-3.6-1.7c0-2.3,0-4.6,0.1-6.8
					c0.1-2,0.2-4.2,0.5-6.2c0.2-1.7,0.7-2,2.2-1.9c0.6,0.1,1.3,0,1.9-0.2c1.6-0.4,3-0.7,4.4-0.8c2-0.4,4.1-0.4,6.1-0.2
					c4.2,0.1,8.4,0.4,12.6-0.4c0.6-0.1,0.7-0.4,0.7-0.8c-0.1-1.4-0.2-2.9-0.4-4.2c-0.1-2.3-0.4-4.4-0.5-6.6c0-0.5-0.1-0.8-0.1-1.3
					c0.1-0.5-0.1-0.6-0.6-0.6c-1,0-1.8,0-2.6,0c-2.3-0.1-4.7-0.2-7-0.4c-5.5-0.1-11,0.2-16.6,0.5c-2.6,0.1-5.2,0.1-7.8,0.4
					c-2.2,0.1-4.3,0.5-6.5,0.7c-0.7,0-1.3,0.1-1.9,0.1c-0.5,0-0.7,0.2-0.7,0.8c0,1.1-0.2,2-0.2,3.1c-0.1,1.2-0.2,2.4-0.2,3.6
					c0.1,3.5,0.2,7.1,0.2,10.6c0,3-0.2,6-0.2,9.1c0,4.1,0,8.3,0,12.4c0,4.8,0,9.6,0,14.3C356.5,32.8,356.5,32.8,356.3,32.8z"/>
				<path class="st3" d="M415.1,20.1c0-4.2-0.1-8.4-0.1-12.6c-0.1-6-0.2-12-0.2-18c0-4.3,0.2-8.8,0.8-13.1c0.1-1,0.4-1.2,1.3-1.3
					c1.3-0.1,2.8-0.2,4.2-0.2c3.4,0,6.6-0.2,10-0.5c4-0.2,7.9-0.4,11.9-0.1c2.2,0.1,4.4,0.2,6.6,0.7c3.8,0.7,7.1,2.3,10,4.8
					c2.6,2.4,5,4.9,7.1,7.7c1.6,2,2.5,4.2,3.1,6.6c1.3,4.4,2.5,8.9,3.2,13.4c0.5,4.4,0.5,8.9,0.2,13.2c-0.1,3.5-0.6,6.8-1.2,10.2
					c-0.5,2.4-1.1,4.8-1.8,7.1c-0.5,1.7-1.3,3.4-2,5c-2.2,4.3-4.9,8.4-8.3,11.9c-3.2,3.4-7.2,5.3-11.8,6.1
					c-6.2,1.2-12.5,1.3-18.7,0.8c-0.8,0-1.6,0-2.4,0c-2.9-0.1-5.9-0.1-8.9-0.2c-0.4,0-0.8,0.1-1.2,0c-0.7,0-1.2-0.4-1.3-1.1
					c-0.2-1.1-0.5-2.3-0.5-3.5c-0.2-5.2-0.1-10.2,0-15.4c0.1-3.2,0-6.4,0-9.5C415.1,28.2,415.1,24.2,415.1,20.1z M417.8,51.9
					c0,2.3,0.1,4.6,0.1,6.8c0,0.5,0.1,0.7,0.6,0.7c2.3,0.1,4.4,0.1,6.7,0.2c2.4,0.1,4.9,0.2,7.4,0.2c3.5,0.1,7.1,0.1,10.6-0.5
					c1.6-0.2,3.1-0.6,4.7-1c1.7-0.4,3.4-0.8,5-1.4c0.7-0.2,1.4-0.7,2.2-1.2c1.7-1.2,2.9-2.8,4.2-4.3c1.8-2.4,3.1-5,4.6-7.6
					c1.3-2.5,2.3-5.4,3.2-8c2-5,2.9-10.3,3.1-15.7c0.1-3.8,0.2-7.7-0.1-11.5c-0.4-3.1-0.7-6.4-1.4-9.5c-1.3-6.6-4.6-12.1-9.4-16.8
					c-1.3-1.2-2.6-2.3-4.2-3.2c-3.6-1.9-7.6-2.8-11.6-2.8c-3.1-0.1-6.2,0.1-9.4,0.2c-4.2,0.1-8.5,0.2-12.8,0.4c-1,0-1.9,0-3,0
					c-0.7,0.1-0.7,0.1-0.7,0.8c-0.2,2.5-0.5,5.2-0.6,7.8c0,3.1,0,6.2,0,9.4c0,5.9,0.1,11.9,0.2,17.6c0.1,6.7,0.2,13.4,0.4,20
					c0,4.2,0.1,8.3,0.2,12.2C417.8,47.4,417.8,49.6,417.8,51.9z M432.2,25c-0.1-1.6,0.1-3.1,0.1-4.6c0-1.9,0-3.7,0-5.5
					c-0.1-3.6-0.4-7.2-0.4-10.7c-0.1-2.5,0-5,0-7.6c0-0.7,0-1.4,0.1-2.3c0-1.1,0.4-1.4,1.6-1.6c2.9-0.1,5.8,0,8.6,0.6
					c0.2,0,0.5,0.1,0.7,0.2c1.1,0.6,2.4,1.2,3.4,2c2.5,2.3,4.2,5.2,5.3,8.3c1.3,3.8,2.4,7.7,2.6,11.6c0.4,4.4,0.5,9-0.4,13.3
					c-0.5,2.4-1,4.8-2,7.1c-1,2.2-2.2,4.1-3.8,5.6c-0.2,0.2-0.6,0.5-0.8,0.7c-1.9,1-4,1.6-6.1,1.7c-0.7,0-1.4,0.1-2.2,0.1
					c-1.6,0.1-3.1,0.2-4.7,0.2c-0.8,0-1.4-0.4-1.7-1.2c-0.1-0.7-0.4-1.4-0.4-2c0.1-4.8,0.1-9.5,0.2-14.2c0-0.5-0.1-1-0.1-1.3
					C432.3,25.5,432.2,25.3,432.2,25z M434.7,34.3c0,2.4,0,4.7,0,7.1c0,0.8,0,0.8,0.8,1c1.7,0,3.2-0.1,4.8-0.5
					c1.1-0.2,2.2-0.4,3.4-0.5c1.1-0.2,2.2-0.5,3-1.3c1-1,1.7-2.2,2.3-3.4c1.1-2.6,1.8-5.4,2.3-8.2c0.5-2.5,0.8-5,1-7.6
					c0.1-1.8,0.1-3.7-0.1-5.6c-0.4-2.6-1-5.3-1.6-7.9c-0.8-3.6-2.6-6.8-5.2-9.6c-0.5-0.6-1.1-1-1.8-1.2c-2.4-0.5-4.8-0.7-7.2-0.6
					c-1.9,0-1.9-0.4-1.8,1.8c0.1,2.6,0.4,5.4,0.5,8c0,3.2-0.1,6.5-0.1,9.7c0,4.3-0.1,8.5-0.1,12.8C434.7,30.3,434.7,32.4,434.7,34.3
					z"/>
				<path class="st3" d="M483.4,64.5c-0.2-0.1-0.5-0.2-0.7-0.4c-2-1-3-2.5-2.9-4.9c0.2-4.3,1.6-8.2,5-10.9c0.7-0.7,1.7-1.1,2.3-2
					c0.1-0.2,0.7-0.4,1.1-0.4c1.8-0.1,3.6,0.1,4.9,1.4c0.2,0.1,0.5,0.4,0.6,0.5c3.1,2.2,4.1,5.3,4,8.8c0,0.7-0.1,1.4-0.2,2
					c-0.4,2-1.2,3.8-2.9,5.3c-1.6,1.2-3.2,2-5.3,1.8C487.3,65.8,485.3,65.2,483.4,64.5z M491.5,48.7c-1-0.6-1.9-0.6-2.9-0.2
					c-0.5,0.2-0.8,0.4-1.2,0.6c-3.4,2-5,5-5.3,8.9c-0.2,1.7,0.4,3,1.7,4.1c0.7,0.5,1.4,1,2.4,1.2c1.9,0.5,3.6,0.4,5.5-0.5
					c2.2-1,3.2-2.5,3.7-4.7c0.2-0.7,0.2-1.3,0.2-1.7C495.7,52.8,494.2,50.4,491.5,48.7z"/>
			</g>
		</g>
	</g>
</g>
</svg>
